<svg xmlns="http://www.w3.org/2000/svg" id="e9B2S7Qu85n1" width="250" height="250" shape-rendering="geometricPrecision" text-rendering="geometricPrecision"><style>@keyframes e9B2S7Qu85n2_ts__ts{0%{transform:translate(125.006502px,125.527367px) scale(.4,.4);animation-timing-function:cubic-bezier(.42,0,.295,1.665)}8.888889%{transform:translate(125.006502px,125.527367px) scale(1,1);animation-timing-function:cubic-bezier(.42,0,.215,2)}88.888889%{transform:translate(125.006502px,125.527367px) scale(1,1);animation-timing-function:cubic-bezier(.42,0,.58,1)}to{transform:translate(125.006502px,125.527367px) scale(.4,.4)}}@keyframes e9B2S7Qu85n2_c_o{0%{opacity:0;animation-timing-function:cubic-bezier(.42,0,.58,1)}8.888889%{opacity:1;animation-timing-function:cubic-bezier(.42,0,.215,1.46)}88.888889%{opacity:1;animation-timing-function:cubic-bezier(.42,0,.58,1)}to{opacity:0}}@keyframes e9B2S7Qu85n3_to__to{0%{transform:translate(78.05681px,156.849289px)}20%{transform:translate(78.05681px,156.849289px);animation-timing-function:cubic-bezier(.42,0,.58,1)}55.555556%,to{transform:translate(78.05681px,158.849289px)}}@keyframes e9B2S7Qu85n3_ts__ts{0%{transform:scale(1,.14627)}6.666667%{transform:scale(1,.14627);animation-timing-function:cubic-bezier(.42,0,.58,1)}44.444444%,to{transform:scale(1,1)}}@keyframes e9B2S7Qu85n3_c_o{0%{opacity:0}11.111111%{opacity:0;animation-timing-function:cubic-bezier(.42,0,.58,1)}13.333333%,to{opacity:1}}@keyframes e9B2S7Qu85n5_to__to{0%,24.444444%{transform:translate(70.243571px,163.543278px)}75.555556%,to{transform:translate(70.743571px,162.943278px)}}@keyframes e9B2S7Qu85n5_ts__ts{0%,24.444444%{transform:rotate(7deg) scale(.7,.6)}75.555556%,to{transform:rotate(7deg) scale(1.2,1)}}@keyframes e9B2S7Qu85n6_ts__ts{0%{transform:translate(165.176907px,187.49915px) scale(1,.5)}2.222222%{transform:translate(165.176907px,187.49915px) scale(1,.5);animation-timing-function:cubic-bezier(.42,0,.58,1)}28.888889%,to{transform:translate(165.176907px,187.49915px) scale(1,1)}}@keyframes e9B2S7Qu85n6_c_o{0%,4.444444%{opacity:0}6.666667%,to{opacity:1}}@keyframes e9B2S7Qu85n8__m{0%,51.111111%{d:path(&quot;M121.525688,148.251203C121.225688,148.451203,121.995541,149.418486,122.341487,151.126593C122.341487,151.526593,122.485018,152.030467,122.685018,152.430467C123.185018,153.430467,123.4,154.8,123.4,155.9C123.5,156.4,123.4,156.9,123.2,157.2C122.9,157.5,122.5,157.7,121.7,157.7C120.9,157.7,120.5,157.7,120.1,157.4C119.8,157.2,119.5,156.9,119.4,156.5L119.4,155.1L119.915309,153.380659C120.215309,152.780659,120.359863,152.200491,120.62384,151.575186C120.887817,150.949881,121.808583,148.968309,121.308583,148.468309&quot;)}80%,to{d:path(&quot;M121.579771,148.296067C121.279771,148.496067,121.618055,147.725541,121.899771,149.476067C121.899771,149.876067,122.485018,152.030467,122.685018,152.430467C123.185018,153.430467,123.4,154.8,123.4,155.9C123.5,156.4,123.4,156.9,123.2,157.2C122.9,157.5,122.5,157.7,121.7,157.7C120.9,157.7,120.5,157.7,120.1,157.4C119.8,157.2,119.5,156.9,119.4,156.5L119.4,155.1L119.915309,153.380659C120.215309,152.780659,120.359863,152.200491,120.62384,151.575186C120.887817,150.949881,121.419771,148.956067,121.479771,148.296067&quot;)}}@keyframes e9B2S7Qu85n8_to__to{0%,37.777778%{transform:translate(165.137464px,179.871061px)}80%,to{transform:translate(165.137464px,185.871061px)}}@keyframes e9B2S7Qu85n8_ts__ts{0%,40%{transform:scale(.8,1)}53.333333%,82.222222%,to{transform:scale(1,1)}}@keyframes e9B2S7Qu85n14_c_o{0%,22.222222%{opacity:0}26.666667%,to{opacity:1}}@keyframes e9B2S7Qu85n19_s_w{0%,15.555556%,20%,to{stroke-width:15}}@keyframes e9B2S7Qu85n19_s_do{0%{stroke-dashoffset:186.16}6.666667%{stroke-dashoffset:186.16;animation-timing-function:cubic-bezier(.42,0,.58,1)}15.555556%,to{stroke-dashoffset:0}}@keyframes e9B2S7Qu85n24_s_do{0%{stroke-dashoffset:78.65}15.555556%{stroke-dashoffset:78.65;animation-timing-function:cubic-bezier(.42,0,.58,1)}22.222222%,to{stroke-dashoffset:0}}@keyframes e9B2S7Qu85n25_c_o{0%,22.222222%{opacity:0}26.666667%,to{opacity:1}}@keyframes e9B2S7Qu85n30_s_do{0%{stroke-dashoffset:276.48}24.444444%{stroke-dashoffset:276.48;animation-timing-function:cubic-bezier(.42,0,.58,1)}33.333333%,to{stroke-dashoffset:0}}@keyframes e9B2S7Qu85n31_c_o{0%,33.333333%{opacity:0}37.777778%,to{opacity:1}}@keyframes e9B2S7Qu85n32_c_o{0%,33.333333%{opacity:0}37.777778%,to{opacity:1}}@keyframes e9B2S7Qu85n37_s_do{0%,33.333333%{stroke-dashoffset:159.26}40%,to{stroke-dashoffset:0}}@keyframes e9B2S7Qu85n38_c_o{0%,40%{opacity:0}44.444444%,to{opacity:1}}@keyframes e9B2S7Qu85n39_c_o{0%,40%{opacity:0}44.444444%,to{opacity:1}}</style><defs><linearGradient id="e9B2S7Qu85n16-fill" x1="23.1" x2="92.5" y1="51.9" y2="136" gradientUnits="userSpaceOnUse" spreadMethod="pad"><stop id="e9B2S7Qu85n16-fill-0" offset="0%" stop-color="#00feb5"/><stop id="e9B2S7Qu85n16-fill-1" offset="100%" stop-color="#61e64f"/></linearGradient><linearGradient id="e9B2S7Qu85n21-fill" x1="23.1" x2="92.5" y1="51.9" y2="136" gradientUnits="userSpaceOnUse" spreadMethod="pad"><stop id="e9B2S7Qu85n21-fill-0" offset="0%" stop-color="#00feb5"/><stop id="e9B2S7Qu85n21-fill-1" offset="100%" stop-color="#61e64f"/></linearGradient><linearGradient id="e9B2S7Qu85n28-fill" x1="110.6" x2="110.6" y1="35.7" y2="132.5" gradientUnits="userSpaceOnUse" spreadMethod="pad"><stop id="e9B2S7Qu85n28-fill-0" offset="0%" stop-color="#00feb5"/><stop id="e9B2S7Qu85n28-fill-1" offset="80%" stop-color="#61e64f"/></linearGradient></defs><g style="animation:e9B2S7Qu85n2_ts__ts 4500ms linear infinite normal forwards" transform="matrix(.4 0 0 .4 125 125.53)"><g opacity="0" style="animation:e9B2S7Qu85n2_c_o 4500ms linear infinite normal forwards" transform="translate(-125 -125.53)"><g style="animation:e9B2S7Qu85n3_to__to 4500ms linear infinite normal forwards" transform="translate(78.06 156.85)"><g style="animation:e9B2S7Qu85n3_ts__ts 4500ms linear infinite normal forwards" transform="scale(1 .15)"><g opacity="0" style="animation:e9B2S7Qu85n3_c_o 4500ms linear infinite normal forwards" transform="translate(-78.06 -158.85)"><path stroke="#000" stroke-width=".1" d="M69.2 167.22c-.2-.7-.74-.85-1.24-1.05l-1.2-1-.3-.3-.2-.1h-.2l-.2.3.1.9.2.6.2.4.2 1c0 .3 0 .6-.3.8-.3.5-1 1-1.7 1.2-.8.3-1.7.2-2.5-.6a1.3 1.3 0 0 1-.4-1.3c.1-.4.3-.9.6-1.3l.1-.3a5 5 0 0 0 .6-1.7 3 3 0 0 0-.7-2 23.8 23.8 0 0 0-5.2-4.5l2.8-1h.1l.4.3a77.4 77.4 0 0 0 18.2 9.3c3.7.9 8.5 1.1 12.3 1.2 2.3 0 4.6 0 6.9-.2l1.3 3.8c-2.8 0-5.6.3-8.6 2-.93.62-2 1-3.1 1.1-.5 0-1-.1-1.2-.4a.9.9 0 0 1-.2-.4v-.2l-.2-.2c0-.2-.1-.3-.3-.4l-.7-.3h-2.8c-1-.1-2.2-.4-3.1-1.2a35 35 0 0 1-1-1h-.1l-.7-.6-.6-.3h-2.1c-.5 0-.8-.2-1-.6h-.1l-.3-.9-.1-.3-.2-.3a.8.8 0 0 0-.5 0c-.1 0-.8-.17-.9.23 0 0-1.45 1.37-2.06-.68Z"/><g style="animation:e9B2S7Qu85n5_to__to 4500ms linear infinite normal forwards" transform="translate(70.24 163.54)"><g style="animation:e9B2S7Qu85n5_ts__ts 4500ms linear infinite normal forwards" transform="matrix(.7 .09 -.07 .6 0 0)"><path stroke="#000" stroke-width=".1" d="M-.4-.73C-.53-.76.02.72.62 3c.66 2.51 1.19 5.4 2.22 8.24l.26 1.06c.39 1.22.29 1.54.29 2.74 0 1.3-.96 1.83-1.56 2.13-.7.4-1.33.14-2.23-.76-.92-.9-.62-2.28-.66-3.57l.1-3.5v-.6c.15-2.6.08-4.41.26-7.06.04-.6.3-2.43.28-2.4Z"/></g></g></g></g></g><g style="animation:e9B2S7Qu85n6_ts__ts 4500ms linear infinite normal forwards" transform="matrix(1 0 0 .5 165.18 187.5)"><g opacity="0" style="animation:e9B2S7Qu85n6_c_o 4500ms linear infinite normal forwards" transform="translate(-165.18 -187.5)"><path stroke="#000" d="m144.86 188.35-.4-.1 4.4-2.6 37.2 2.7a59.9 59.9 0 0 0-4 3.5l-.4.3c-.8.8-1.6 1.7-2.4 2.3-.8.7-1.5 1.1-2 1.3h-1.8l-1.2-.4-.6-.2c-1.2-.4-2.5-.7-4 0 0 0-.77-.32-1.1-.24-.58.13-1.54.82-1.54.82s-1.07 2.01-1.48.8c-.64-3.26-7.43-3.1-10.48-2.18l-.7.2c-.5 0-.8 0-1.3-.2-.5-.3-1-.8-1.8-1.7a15 15 0 0 0-6.4-4.3Z"/><g style="animation:e9B2S7Qu85n8_to__to 4500ms linear infinite normal forwards" transform="translate(165.14 179.87)"><g style="animation:e9B2S7Qu85n8_ts__ts 4500ms linear infinite normal forwards" transform="scale(.8 1)"><path stroke="#000" stroke-linecap="round" stroke-linejoin="round" d="M121.53 148.25c-.3.2.47 1.17.81 2.88 0 .4.15.9.35 1.3.5 1 .71 2.37.71 3.47.1.5 0 1-.2 1.3-.3.3-.7.5-1.5.5s-1.2 0-1.6-.3c-.3-.2-.6-.5-.7-.9v-1.4l.52-1.72c.3-.6.44-1.18.7-1.8s1.19-2.61.69-3.11" style="animation:e9B2S7Qu85n8__m 4500ms linear infinite normal forwards" transform="translate(-120.58 -139.72)"/></g></g></g></g><g><path d="M204.96 160.85a38.5 38.5 0 0 1-16.7 26.3 41.8 41.8 0 0 1-24 7 44.3 44.3 0 0 1-30-10.5 38.5 38.5 0 0 1-5-3.8c-.7 3.4-.9 7.4.3 12.3.6 2.6 1.3 5.1 2.1 7.6 0 .3.2.7.1 1.1 0 .5-.3 1.1-1 1.7-.6.6-1.5 1.2-2.4 1.3-.4 0-.8 0-1.1-.2-3-1-5.3-2.6-7.6-4.2l-3-1.9-4.3-2-.6-.2a95.2 95.2 0 0 0-17.5-3.2c-.6-.1-1.5-.2-2-.9h-.3l-2.8-.2a2 2 0 0 1-1-3.5c2-1.6 4-3.4 6-5.3 3.7-3.6 5.8-7.2 7.2-10.5a58.8 58.8 0 0 1-26.2-2.8 47.3 47.3 0 0 1-12.4-6.6 38 38 0 0 1-15.2-16.8c-9.9-23.2 5.7-47.4 24.9-54.5a137 137 0 0 1 11.4-3.7c10-3 20.6-6.3 37-16.3a98 98 0 0 0 25-20.7c.6-1.1 1.1-2.2 1.7-3 .6-1 1.7-1.2 2.7-1.2s2 .3 2.5.4c2.2.7 3.3 1.4 3.9 2l.5.8v.6a96.9 96.9 0 0 0 10.1 34 142.3 142.3 0 0 0 22.4 33.8c2.6 3 5 6 7.4 9.2l.2.3a45.2 45.2 0 0 1 7.6 33.6h.1Zm-71 19.7a48 48 0 0 0 14.3 6.5c11 3 23.6 2.9 33.4-3.7 19.5-13 19.7-40 8-55.7-2.3-3.2-4.7-6-7.2-9-6.8-8-14.2-16.9-22.8-34.5a93 93 0 0 1-10.3-33.9 93.3 93.3 0 0 1-27.1 23c-16.8 9.9-27.9 13.3-37.9 16.4-3.7 1-7.3 2.2-11 3.6-18.3 6.9-32.7 29.7-23.5 51.3a40.6 40.6 0 0 0 26.1 21.2 47.8 47.8 0 0 0 15.5 2.2c4.7-.1 8.5-1.2 10.8-3 1.4-1.1 3.5.2 3 2s-1.1-.3-1.1-.3l1.2.3-.1.5v.2a32.3 32.3 0 0 1-9.5 16.4 99.4 99.4 0 0 1-5.1 4.7h1.3c4.4.4 10.6.8 15.8 2.4 5.3 1.7 11 4.7 14.8 6.7l.9.5c-.7-2.2-1.3-4.4-1.8-6.7a32 32 0 0 1 1-18.9l.1-.4.1-.2c.6-1.8 3-1.7 3.7 0a20 20 0 0 0 7.4 8.4Z"/><path fill="#4a47ea" d="M190.76 127.65c-8.8-11.8-18.3-19.2-30-43.2a88.4 88.4 0 0 1-10.3-34.9c0-.4-.4-.7-.8-.7a88.3 88.3 0 0 1-28.1 24c-22.8 13.9-34.9 15-48.6 20.1-18.8 7-33.8 30.5-24.2 52.9 9.7 22.4 43.9 28.8 54.2 20.9.4-.3.8-.2 1 0 .2.3.3.5.2.7l-.2.7a31.1 31.1 0 0 1-9 15.8 96 96 0 0 1-6 5.4.7.7 0 0 0 .4 1.3c4.1.3 11.9.6 18 2.5 6.2 1.9 12.9 5.7 16.6 7.7.4.2.8 0 1-.3v-.6l-2.1-7.8a31 31 0 0 1 1-18.2l.2-.6a.7.7 0 0 1 1.4 0c4.3 12.3 36.6 25.5 56.9 11.9 20.2-13.6 20.3-41.5 8.4-57.6Z"/><path fill="#948eff" d="M191.16 145.75c-3.5 27.6-23 36.7-37.1 34.8-.2 0 2.9 3 3.9 3.2 12.3 1.9 32.7-2.6 35.1-30.8.6-3.7-1.8-7.5-2-7.2h.1Zm-93.3 40c2.1-2.2 4.7-4.8 5.6-7.7.3-1.1.5-1.5 1.4-2.3.7-.6 2.1-1.8 2-1-.5 2.5-2.4 7-4.8 9.6 3.1.1 10.9 2.2 13.8 5.3.5.7.5 1.3.6 2.3 0 .2.1 1.4-.7.4l.3.4a28.7 28.7 0 0 0-17.3-5.6c-.2.1-2.5.2-1.6-.7l.7-.7Zm62.9-94.8a72 72 0 0 1-12.6-35.2c0-1.3-1 1.4-1.1 2a13 13 0 0 0-.8 4.7 57 57 0 0 0 13.5 33c.6.2 2-3 1-4.5Z"/></g><g><path d="M98.3 113.9a9 9 0 0 0-1.8-2.2 10.8 10.8 0 0 0-4.9-6.6 8 8 0 0 0-4.2-.8c-.9 0-1.7.2-2.5.3-1.6.1-3.4.3-5.7.2a43.7 43.7 0 0 0-4.8-50.5 38.8 38.8 0 0 0-26.2-15.6 17 17 0 0 0-6.8.4c-3 1-4.4 3.2-5 5.1-.3.8-.4 1.6-.4 2.3a33.4 33.4 0 0 0-22.3 29.8c-.9 7.2-.4 14.7 1.3 20.2l.2.7c1 3.4 2 7 4.8 10.6a31.9 31.9 0 0 0 10.6 9c11 7.8 20.6 4.5 25.4 3.7a19.7 19.7 0 0 0 8.7 6 29 29 0 0 0 13.8 4.6c16.8 2.1 16.1-5.2 17.2-6.7s6.3-4.8 2.6-10.5Zm-7.3 5.6-.3.4c-.7.9-.7 3.7-4.1 5.4q-3.52 1.1-4.1 1.2c-2 .2-4.8.2-8.3-.2-11.7-1.5-14.8-5.5-16.9-8.1-.7-1-1.3-1.7-2.2-2l-.5-.2c-1.2-.2-2.8.2-4.1.5l-1.5.4a25.2 25.2 0 0 1-19.4-3.5 29.6 29.6 0 0 1-8.5-8.1c-2-3.2-2.8-6.1-3.8-9.5-3.1-10.3-2-28.5 6-37.5a28.5 28.5 0 0 1 15-9.9l.1-.2c-.1-1-.3-5.4 3.8-6.8 4.7-1.6 23.5.3 33.7 19.8 8.6 16.4 3.5 33-1.5 40.7l-.3.4v.2l-.2.2-.2.2-.1.2-.3.3c-.56.73-1.2 1.4-1.9 2-.1.5.7 1.2 6.7 1.7 8.8.8 11.5-2.7 15 2.7 3.3 5-.6 8.1-2.1 9.7Zm-33.1-61a25 25 0 0 0-3-2l-1.4 1.8c-.8.7-1.8 1.4-3 1.3-1.4-.1-8.6.3-14.2 4.4a17 17 0 0 0-6.9 12c-1.8 15.7 4.7 26.3 11 30.2.4.2 6.8 2 8.8 1 2-1.3-3.1-4.7-4.5-14-1.3-9.4-1.6-16.9 2.5-19.5v-.1c.2-.8 1.3-6.5 5-4.5 3.5 2 1.8 11.4 3.3 18.7l.4 1.8v.1l.2.3c2.4 7.5 5.5 9.8 5.5 9.8l.7-1A30 30 0 0 0 67.4 81a29 29 0 0 0-9.5-22.5ZM61.4 96c-.7-1-1.6-2.6-2.4-4.7-1.5-6.9-.2-15.6-2.5-18.9v-.6c-.5-1.6-1.3-3.6-3.2-4.6a5 5 0 0 0-4.3-.4 5.7 5.7 0 0 0-2.6 2.4c-.7 1.1-1 2.3-1.3 3.2-2.4 2-3.3 5.2-3.5 8.4-.3 3.7.1 8.1.8 12.8a29 29 0 0 0 3.7 10.8l.4.7c-.6 0-1.2 0-1.9-.2-1.4-.2-2.7-.6-3.3-.8-3.8-2.4-8-8.1-9.3-16.6a43.2 43.2 0 0 1 .5-12.8c2.2-7.1 8-10.5 13-12.1 2.4-.6 4.3-.6 4.9-.6 1.2.1 2.3-.2 3.1-.7h.3c1 0 1.8-.3 2.5-1a27.2 27.2 0 0 1 8.7 21c.1 7-2 12.1-3.6 14.8V96Z" opacity="0" style="animation:e9B2S7Qu85n14_c_o 4500ms linear infinite normal forwards" transform="translate(44.56 46.15)"/><g mask="url(#e9B2S7Qu85n17)"><path fill="url(#e9B2S7Qu85n16-fill)" d="M71.72 105.78c5.4-4.8 14.38-25.18 4.18-44.58-10.2-19.5-29-21.4-33.7-19.8-4.2 1.5-3.9 5.8-3.8 6.8 0 0 0 .2-.2.2-1.2.2-7.7 1.8-15 10-7.9 9-9 27-6 37.4 1.2 3.8 2 7 4.7 10.6A29.6 29.6 0 0 0 38.1 117c3 .67 6.06.64 9.08.27.29-.04 7.08-.06 12.5-2.46 5.84-2.6 10.33-7.6 10.33-7.6M61.6 100c-2.22 2.38-10.75 7.26-12.5 7.3-1.9 1.1-8.3-.8-8.8-1-6.3-3.8-12.7-14.5-10.9-30.1 1.9-15.7 18.7-16.8 21.2-16.5 2 .2 3.8-2.5 4.3-3.2h.2A28.9 28.9 0 0 1 67.4 81a29.2 29.2 0 0 1-5.8 18.9v.1Z" transform="translate(44.56 46.15)"/><mask id="e9B2S7Qu85n17" width="400%" height="400%" x="-150%" y="-150%" mask-type="alpha"><g><path fill="none" stroke="#3f5787" stroke-dasharray="186.16" stroke-dashoffset="186.16" stroke-linecap="round" stroke-linejoin="round" stroke-width="15" d="M95 98.72q-21.63 4.11-25.34 14.73c-3.7 10.62-3.48 36 8.13 41.18s21.92 5.35 27.36.16 12.57-13.25 13.64-21.69c.97-7.56-2.31-22.29-6.26-27.23S92.22 91.77 89.5 92.5" style="animation-name:e9B2S7Qu85n19_s_w,e9B2S7Qu85n19_s_do;animation-duration:4500ms;animation-fill-mode:forwards;animation-timing-function:linear;animation-direction:normal;animation-iteration-count:infinite"/></g></mask></g><g mask="url(#e9B2S7Qu85n22)"><path fill="url(#e9B2S7Qu85n21-fill)" d="M93.1 109.8c-3.5-5.4-6.2-1.9-15-2.6-8.4-.8-6.6-1.9-6.4-2 5.4-4.8 14.4-24.6 4.2-44-10.2-19.5-37.6-14-37.5-13 0 0-7.9 2-15.2 10.2-7.9 9-9 27-6 37.4 1.2 3.8 2 7 4.7 10.6A29.6 29.6 0 0 0 38.1 117c3.6.8 7.3.6 10.9 0 1.7-.3 4.4-1.4 6.1-.7 3 1.2 3 8 19 10 16.1 2.1 15.5-4.8 16.5-6.3 1-1.4 6-4.5 2.5-10v-.2ZM61.6 100s-3.1-2.4-5.6-9.8c-2.4-7.5 0-18.8-3.8-21-3.7-2-4.8 3.7-5 4.5v.1C43 76.4 43.4 84 44.7 93.3c1.4 9.3 6.4 12.7 4.4 14-1.9 1.1-8.3-.8-8.8-1-6.3-3.8-12.7-14.5-10.9-30.1 1.9-15.7 18.7-16.8 21.2-16.5 2 .2 3.8-2.5 4.3-3.2h.2A28.9 28.9 0 0 1 67.4 81a29.2 29.2 0 0 1-5.8 18.9v.1Z" transform="translate(44.56 46.15)"/><mask id="e9B2S7Qu85n22" width="400%" height="400%" x="-150%" y="-150%" mask-type="alpha"><g><path fill="none" stroke="#3f5787" stroke-dasharray="78.65" stroke-dashoffset="78.65" stroke-linecap="round" stroke-linejoin="round" stroke-width="20" d="M94.4 123.98q-1.67 22.91 5.65 32.01c7.32 9.11 28.5 6.54 32.01 6.71" style="animation:e9B2S7Qu85n24_s_do 4500ms linear infinite normal forwards"/></g></mask></g><path fill="#faff01" d="M94.26 125.95c0 9.9 2.8 20.8 9.9 28l.44.43c5.92-4.58 9.81-12.34 11.46-19.43a28.2 28.2 0 0 0 .7-9.6 45.2 45.2 0 0 0-5.9-19c-.8-1.5-1.8-2.8-3-4.1v-.4h.4c8.4 5.8 13 18.6 12.8 28.6a32 32 0 0 1-12.7 23.3c-.79.62-1.6 1.22-2.44 1.77 2.71 2.16 5.94 3.75 9.04 5.13a74.1 74.1 0 0 0 13 4h-.1c-3.2.7-6.6.7-9.9.2s-6.6-1.5-9.5-3.2a30.4 30.4 0 0 1-5.42-4.44 23.76 23.76 0 0 1-9.98 2.74c-9.4.4-18.4-1.6-23.6-10.1a38.5 38.5 0 0 1-4.9-18.5 33 33 0 0 1 1.2-11c3.7-13.3 16.9-23.7 30.9-22 0 0 .2 0 .2.2l-.2.2a30.3 30.3 0 0 0-26.7 25.2 46 46 0 0 0 1.2 19.4c3 10 11.1 14.4 21.1 15 3.63.2 6.88-.67 9.74-2.26a30.4 30.4 0 0 1-5.14-8.24 43.6 43.6 0 0 1-2.7-22l.1.1Z" opacity="0" style="animation:e9B2S7Qu85n25_c_o 4500ms linear infinite normal forwards"/></g><g><g mask="url(#e9B2S7Qu85n29)"><path fill="url(#e9B2S7Qu85n28-fill)" d="M146.4 39c-.3-3.6-1.5-8.1-4-11-1.5-2.4-4.2-4.8-7.4-4-5.1 1.3-3.8 10.1-4.7 14.3-1 10.6-2 21.1-3.3 31.7-1 5.6-1.3 16-4.8 20.2-2.9 2-3.3-6.6-3.4-8.4-.4-6.7 0-13.6-.8-20.2-.5-6.5-4-16.6-12.5-14.8-4.8 1.2-.8 6.9-1 10 0 9.1-.5 18.3-2.5 27.1-2.2 8.5-3.7-.8-5-5.2-.8-6.4-.3-12-.3-18.5.1-7 .5-12.4-.4-19.3-1-6.3-15.5-2.2-19.6-1.1-3.5 5.3-3.3 17.8 5.3 14.5 6.7-2.6 4.5-3.3 3 7.3-1 6.1-.7 9-1 15.2-.2 4-.5 8.1.2 12.1.8 5.3 2.7 10.7 6.7 14.4 1.4 1.7 2.6 3.5 4.4 4.7 10.7 8 14-4.4 15.3-12 0-.2-.2-1.7 0-1.7s.2-1.1.2-1l.2 1.6 2 7.8c.8 3.6 1.4 7.4 3.7 10.4.4.4.8.9 1.4 1 .2 0 .3.2.4.4.6 1.2 1.3 2.4 2.3 3.3 12.1 10.7 20.4-31.9 22.3-39 2.3-12.5 4-27 3.3-39.7V39Z" transform="translate(44.56 46.15)"/><mask id="e9B2S7Qu85n29" width="400%" height="400%" x="-150%" y="-150%" mask-type="alpha"><path fill="none" stroke="#3f5787" stroke-dasharray="276.48" stroke-dashoffset="276.48" stroke-linecap="round" stroke-linejoin="round" stroke-width="19" d="M121.22 94.09q13.9-6.73 14.55-3.7c.65 3.05-.87 29.55 0 34.33s5.43 26.28 10.64 26.5 10.6-47.09 10.6-51-.39 23.84.7 28.4 7.19 29.54 11.3 28.68c7.3-1.54 11.91-30.37 15.2-80.37" style="animation:e9B2S7Qu85n30_s_do 4500ms linear infinite normal forwards"/></mask></g><path fill="#faff01" d="M138.3 36.7a105 105 0 0 1 0 28c-1.2 9.2-2.6 18.4-5 27.5-1.3 4.5-3.5 12.8-7.8 15.3a5.3 5.3 0 0 1-6-.6 19.8 19.8 0 0 1-5-8.4 81.5 81.5 0 0 1-3.3-13.8c-.8-4.6-1.4-9.2-2-13.8h2.5c-.9 4.1-1.9 8.3-3 12.4a72.8 72.8 0 0 1-4.1 12.1c-1.7 3.5-4.7 7.1-8.8 4.3-2-1.4-3.3-3.4-4.5-5.4a23.2 23.2 0 0 1-3.6-9.5c-1.4-10.7 1-21.2 2.3-31.8.1-1.9.9-5-.9-6.3-1.1-.7-2.5-.4-3.9-.1-2 .5-3.9 1.4-5.7 2.3-.2 0-.3 0-.4-.2l.1-.3 2.7-1.7c3.6-2.2 9-4 10.6 1.4.4 1.7.4 3.4.4 5l-.2 6.5c-.3 6.3-.8 12.4-.8 18.7a48 48 0 0 0 1.5 11.6c.7 2 1.4 3.8 2.4 5.5.8 1.2 1.9 3 3.5 2.9 1.6-.3 2.8-2.3 3.7-3.7a48 48 0 0 0 4.2-11.7c1-4 1.6-8.2 2-12.4.2-1.4 2.1-1.5 2.5-.1l1.7 6.8c1.7 6.3 3.2 13.6 5.5 19.7.7 1.9 1.6 4 2.8 5.4.4.5.9 1 1.2 1 4.5-3.1 7.6-23.2 8.5-29.2a501.3 501.3 0 0 0 4.1-22.9c.4-2.5.9-5 1.2-7.6l1.1-6.9.3-.2.2.2Z" opacity="0" style="animation:e9B2S7Qu85n31_c_o 4500ms linear infinite normal forwards" transform="translate(44.56 46.15)"/><path d="M146.5 32.9c-.8-2.8-1.8-4.3-2.7-5.1-1-2-2.6-3.6-4.5-4.5-2-1-4.7-1.2-7 .4a9 9 0 0 0-2.3 3.2 23.9 23.9 0 0 0-1.2 7.1L127 51.2c-.8 7.5-1.5 14.3-2.3 20.1-.6 5-1.2 9.1-1.9 12.3 0 .5-.2 1-.3 1.4-.6-9.3.3-25-4.8-31.6l-1.2-3a13 13 0 0 0-3.9-4.2 9.5 9.5 0 0 0-5.9-1.4c-1.6.1-3.1.7-4.2 1.8a5.3 5.3 0 0 0-1.3 3.6c0 1.2.2 2.2.4 3.1l.4 1.2v.2l.3.8.1.8V58a97.5 97.5 0 0 1-.3 10.3 99.3 99.3 0 0 1-1.8 14c-1-10.7 1.1-34.2-.8-38.3-.3-.6-.7-1-1.3-1.4a5.8 5.8 0 0 0-.4-1.2 8 8 0 0 0-.5-1.8c-1-2.3-3.5-3.2-5.4-3.5a50.7 50.7 0 0 0-15.5 2.2c-.6.2-1.2.7-1.5 1.3-.7 1.5-1.3 3.1-1.6 4.8-.5 2.4-.6 5.8 1.4 8.7 1.8 2.7 4.7 3 7 2.7.8.7 1.8 1 2.8 1-1 6-2.4 15-2.6 24.5-.4 15.3 6.3 22 8 23.4 1 1.5 2.3 2.9 3.7 4a12 12 0 0 0 8.3 3.1 8 8 0 0 0 3.8 1c.5 0 1 0 1.4-.2 2-.4 3.7-2.8 4.9-5.8.8 3 1.8 5 2.7 6.4.7 1 1.5 1.8 2.3 2.2.4.8.9 1.6 1.5 2.3a8 8 0 0 0 7.7 3.3 5 5 0 0 0 3.2 1c3.6 0 9.1-4 16.7-43.2 7.3-38.1 1.7-44.9.4-45.9Zm-27.7 80.6-.3-.1c-.6 0-2.8-1-4.8-9.6L112 97l-.1-.2c-.37-1.53-.7-3.06-1-4.6-.1-.3-.5-.3-.5 0a37 37 0 0 1-.9 4.8c-1.2 5.2-3.3 11.5-6.8 12.3-5.8 1.4-10.7-5.7-11-6.2h-.1c-.5-.4-7.7-6.2-7.3-21.8.3-11.5 2.2-22.4 3.2-27.5l.2-.6.4-2.2c0-.1-.1-.3-.3-.2l-.1.1c-.8.5-1.5.9-2.3 1.2-2.7 1.3-6.8 2.5-8.7-.3-3-4.3 0-10.4.3-11.1l.1-.1c1.1-.4 15.8-4.8 18 0 1 2.3.9 10.5.7 19.1-.3 10.5-.5 21.7 1.3 24.1.3.8 5 15 7.4-15.3 0 0 .8-11.3 0-13.7 0-.2 0-.5-.2-.8-.8-2.5-2-6.4 2.6-6.8 10.2-.7 10.6 15.6 11 28 .1 4.6.2 8.7.8 11.2.4 1.5 1.8 7.7 4.2 4.4 2.7-3.7 4.3-18.9 6.4-39.4l1.6-14.8v-.3l.3-2.1.1-2.4c.2-2 .8-5 2.5-6.1 2.7-2 6.4.2 8 3.6l.2.1c.7.4 7.4 5.7-.3 46-8.2 42.5-14 43.7-17.6 43.2-3.3-.5-5-4.3-5.4-5l.1-.1Z" opacity="0" style="animation:e9B2S7Qu85n32_c_o 4500ms linear infinite normal forwards" transform="translate(44.56 46.15)"/></g><g><g mask="url(#e9B2S7Qu85n36)"><path fill="#0bfcaa" d="M77.06 98.85c-2 0-3.2-1.2-3.6-1.7h-.1l-2.7-3-3-3.5-8.6-8.1-3-3c-1.5-1.4-2.8-3.6-1.4-5.4.5-.6 1.6-1.7 4-1.7 2.07.03 4.12.5 6 1.4.2 0 .4.2.5.3.3 0 .4.2.6.3l.3.2.6.3 2 1h.1l.3.1 1.4.7 1.3.6c1.6.7 3.3 1.6 5 2a56.8 56.8 0 0 0-.7-4.5l-.8-8.7v-.5c-.3-2.9-.7-7.7 2-10.1a6 6 0 0 1 4-1.5h.2c1.8 0 3.4.6 4.5 1.7a6 6 0 0 1 1.4 2.4 229.1 229.1 0 0 0 7.2 18.5c2.2-2.2 4.6-4.1 7.1-5.8h.2c3.3-2.2 6.8-4.4 11-5.6a14 14 0 0 1 3.3-.5 6 6 0 0 1 3.1.7c1.2.7 2 1.9 2.2 3.2a5 5 0 0 1-.2 2.4 12 12 0 0 1-3 4.3l-1.2 1.2c-1 1-2 2-2.5 3-.3.3-.5.8-.7 1.2l-.5 1-.4.6-.8 1.4v.4c-1.1 2.4-2 5-2.6 8a9 9 0 0 1-.8 2.3c-.5 1-1.8 2.2-3.8 2.2l-1.1-.1c-1.8-.4-3.3-1.8-2.7-4l.3-1.6v-.1l.6-3.2c.5-2.5 1.3-4.8 2.3-7.1a12.2 12.2 0 0 0-2.8 3.6l-.1.2a6.6 6.6 0 0 1-3 3.3 10 10 0 0 1-4.5 1.1h-.4c-1.5 0-2.8-.4-3.8-1-.6-.4-1.1-.9-1.5-1.4a8.2 8.2 0 0 1-4.3 2.9c-1 .2-1.9.4-2.8.4s-1.7-.1-2.6-.3c1 1.3 1.8 2.7 2.5 4.2 1 2.6-.4 4.4-2.5 5-.5.2-1 .3-1.6.3h.1Z"/><mask id="e9B2S7Qu85n36" width="400%" height="400%" x="-150%" y="-150%" mask-type="alpha"><path fill="none" stroke="#3f5787" stroke-dasharray="159.26" stroke-dashoffset="159.26" stroke-linecap="round" stroke-linejoin="round" stroke-width="10" d="M77.92 95.46Q56.2 82.9 60.1 77.01c2.8-4.23 16.8 9.97 21.21 7.44 6.47-3.7-6.11-23.93.99-24.85 6.71-.87 5.31 22.14 8.66 23.3s6 .05 7.62-2.49 18.86-15.01 16.9-10.93c-1.56 3.24-5.24 10.55-9.77 22.52" style="animation:e9B2S7Qu85n37_s_do 4500ms linear infinite normal forwards"/></mask></g><path fill="#faff01" d="M31.5 48.2a237.5 237.5 0 0 1-14.6-14.7c-.5-.5-.5-1.3 0-1.7s1-.4 1.6-.1l2.2 1.4c3.6 2 8.1 4.2 12.2 4.2 6.2 0 6.5-7.3 6-11.9-.4-3.6-1.4-7.1-2.5-10.6l1.2-.3c1.4 5 7 21.2 13.2 20.8 2.5-.3 4.4-2.8 5.9-4.8l1.5-2c1.7-1.7 3.6-3.3 5.6-4.5a9.2 9.2 0 0 1 4.5-1.7c1.3 0 2.3 1 2.4 2.2.1 2.5-2 6-3.2 8.1-2 3.24-3.83 6.58-5.5 10-.3.6-.6 1.3-.6 2 0 .2-.1.2-.2.2l-.1-.1c-.2-3.2 2.6-9.1 4.1-12 .8-1.7 1.7-3.5 2.3-5.1.3-.7.5-1.3.6-2v-.8l.2.1-1.1.4a24.5 24.5 0 0 0-8 6.9c-1.5 2-3.2 4-5.5 5.2-8 3.7-13-7.7-15-13.7-.9-3-1.7-6-2.3-9-.1-.7 1-1 1.2-.2 1.4 5.8 4.3 16.7.7 22-1.7 2.6-5.2 3.3-8.2 2.8a30.5 30.5 0 0 1-13-5.6l1.6-1.8a302.4 302.4 0 0 1 13 16.3h-.2Zm0 .6A242.5 242.5 0 0 1 16.9 34c-.5-.5-.5-1.3 0-1.8.5-.3 1.1-.4 1.6 0l2.2 1.3c3.6 2 8.1 4.2 12.2 4.3 6.2 0 6.5-7.3 6-12-.4-3.5-1.4-7-2.5-10.5l1.2-.4c1.4 5 7 21.2 13.2 20.8 2.5-.2 4.4-2.7 5.8-4.8l1.6-2a29 29 0 0 1 5.6-4.5 9.2 9.2 0 0 1 4.5-1.7c1.3 0 2.3 1 2.4 2.3.1 2.4-2 6-3.2 8a129.4 129.4 0 0 0-5.6 10 8 8 0 0 0-.6 2.1l-.1.1-.2-.1c-.1-3.2 2.7-9.1 4.2-12 .8-1.7 1.7-3.4 2.3-5.1l.6-2v-.7c0-.1 0-.1 0 0h.1c.1.1.1.1 0 .1a18.4 18.4 0 0 0-4.6 2.7 23.6 23.6 0 0 0-4.4 4.6c-1.5 2-3.2 4-5.5 5.2-8 3.7-13-7.7-15-13.7-.9-3-1.7-6-2.3-9-.1-.8 1-1 1.2-.3 1.3 5.9 4.3 16.8.7 22-1.8 2.7-5.2 3.3-8.2 2.9-4.3-.6-8.2-2.6-11.8-4.8l-1.2-.8 1.6-1.8a296.9 296.9 0 0 1 13 16.3h-.2v.1Zm-.2-.2a242.5 242.5 0 0 1-14.6-14.7c-.5-.5-.4-1.3 0-1.7.5-.4 1.1-.5 1.6-.1l2.2 1.3c3.6 2 8.1 4.3 12.2 4.3 6.2 0 6.5-7.3 6-12-.4-3.5-1.4-7-2.5-10.5l1.2-.4c1.4 5 7 21.2 13.2 20.8 2.5-.2 4.4-2.7 5.9-4.8l1.6-2a29 29 0 0 1 5.5-4.5 9.2 9.2 0 0 1 4.5-1.7c1.3 0 2.3 1 2.4 2.3.1 2.4-2 6-3.2 8a129.4 129.4 0 0 0-5.5 10A8 8 0 0 0 61 45l-.1.1h-.1c-.2-3.3 2.6-9.2 4-12.1.9-1.7 1.8-3.4 2.4-5l.6-2v-.8s0-.1 0 0l.2.1c-.4 0-.7.2-1.1.4a23.6 23.6 0 0 0-8 6.9c-1.5 2-3.2 4-5.5 5.2-8 3.7-13-7.7-15-13.7-.9-3-1.7-6-2.3-9-.1-.8 1-1 1.2-.2 1.4 5.8 4.3 16.7.7 22-1.8 2.6-5.2 3.2-8.2 2.8-4.3-.6-8.2-2.6-11.8-4.8l-1.2-.8 1.6-1.8a296.9 296.9 0 0 1 13 16.3h-.2.1Z" opacity="0" style="animation:e9B2S7Qu85n38_c_o 4500ms linear infinite normal forwards" transform="translate(44.56 46.15)"/><path d="M73.7 31.3 75 30c1.2-1.2 2.6-2.8 3.3-4.8.3-1 .4-2 .2-3a5.7 5.7 0 0 0-2.8-4c-1.2-.6-2.5-1-4-1a14 14 0 0 0-3.8.7c-4.4 1.3-8 3.5-11.4 5.7h-.1c-2 1.4-4 2.8-5.7 4.4-2.6-5.8-4.7-11.6-6.4-16.5-.3-1-.7-1.9-1.6-2.8A7.8 7.8 0 0 0 37 6.4a7 7 0 0 0-5.2 2c-3.1 2.8-2.7 8-2.4 11v.6l.7 8.6.4 2.4-2.4-1.1-1.3-.6-1.4-.7-.3-.1a15.2 15.2 0 0 1-2.6-1.3l-.2-.1-.6-.3-.6-.4a16.6 16.6 0 0 0-6.7-1.6h-.1c-3.1 0-4.6 1.5-5.2 2.4-1.5 2-1 4.8 1.3 7l3.2 3 1.5 1.5 7 6.6 3 3.3 2.7 3.1a6 6 0 0 0 4.8 2.2 7 7 0 0 0 2.2-.3 5.7 5.7 0 0 0 3.2-2.4c.5-1 1-2.4.1-4.3L37 44.7c1 0 2.1-.2 3.1-.5a10 10 0 0 0 3.9-2l.6.3c1.2.8 2.8 1.3 4.6 1.3 2.49.1 4.94-.6 7-2l-.5 2.7-.3 1.5c-.8 3 1.4 5 3.7 5.6l1.5.1a6 6 0 0 0 5.2-3l1-2.5a39.6 39.6 0 0 1 4.8-12.4 14 14 0 0 1 2.3-2.6l-.2.1ZM67.5 35c-.3.6-.7 1.2-1.3 2.5a45 45 0 0 0-2.6 8.3c-.1.7-.4 1.3-.7 2a3 3 0 0 1-2.4 1.4 3 3 0 0 1-.7 0c-.4-.2-2.1-.7-1.6-2.6l.3-1.7.6-3.2a38.4 38.4 0 0 1 4.7-11.9 21 21 0 0 0-8.1 7.7c-.6 1.2-1 2-2.4 2.8-1.2.6-2.5 1-3.8 1h-.3c-1.1 0-2.2-.3-3-.8a4.1 4.1 0 0 1-1.7-2.2c-.1-.2-.3-1.4-.8-1.4l-.2.1c-.2.2-.2.8-.2 1l-.5 1a6.6 6.6 0 0 1-3.8 2.8 11 11 0 0 1-6.9-.6c-.4-.2-1.8-.6-2-.8a28 28 0 0 1 5 7.5c.9 1.8-.2 2.9-1.5 3.3l-1 .2h-.1c-1.3 0-2-.8-2.4-1.2H30c-2-2.2-3.7-4.5-5.8-6.5l-7-6.7-4.6-4.4c-1-1-2-2.7-1.1-4 .4-.5 1.1-1.1 2.7-1.1 1.84-.02 3.65.4 5.3 1.2l.4.3h.1l.5.3h.2l.6.4 2.4 1.2h.2l1.4.7c2.6 1.2 5.7 2.9 8.8 3.2-.1-2.1-.9-4.2-1-6.3l-.7-8.6C32 16.6 31 9 36.9 9c1.4 0 2.6.4 3.4 1.3.6.6.9 1.2 1.1 1.8a196 196 0 0 0 6.8 17.7l.2.2 1.3 2.9.1-.1a34 34 0 0 1 8.4-7.1c3.3-2.2 6.6-4.3 10.6-5.5 1-.2 2-.4 2.9-.4.8 0 1.6.1 2.3.5a3.62 3.62 0 0 1 1.4 4.1 11 11 0 0 1-2.8 4c-1.3 1.3-3 2.7-3.9 4.2" opacity="0" style="animation:e9B2S7Qu85n39_c_o 4500ms linear infinite normal forwards" transform="translate(44.56 46.15)"/></g></g></g></svg>