<svg xmlns="http://www.w3.org/2000/svg" fill="none" viewBox="0 0 1400 1000"><path fill="url(#a)" d="M708.3 380.3h-35a11.3 11.3 0 0 0 0 22.7h35a11.3 11.3 0 1 0 0-22.7Z"/><path fill="url(#b)" fill-rule="evenodd" d="M715.2 262c6.9 5 19.9 19.7-.2 52.7 0 0-9.6-4.7-15.4-18.4a63 63 0 0 1-8.7 8.4c-3.3-2.9-6-5.9-8.5-8.9-5.7 14-15.6 19-15.6 19-20-33-7-47.8-.2-52.8l2.7-1.7v-6.1C671 224.4 691 199 691 199s19 26.2 21.3 55.3l.3 6 2.7 1.7ZM744 238a70 70 0 0 0 11.7-39c0-37.5-29-67.9-64.8-67.9S626 161.4 626 199a70 70 0 0 0 11.6 38.9c-3.8-.8-7.7-1.1-11.6-1.1-35.8 0-64.9 30.4-64.9 68 0 37.5 29 68 64.9 68 35.7 0 64.8-30.5 64.8-68 0 37.5 29 68 64.8 68s64.8-30.5 64.8-68c0-37.6-29-68-64.8-68-4 0-7.9.3-11.7 1Z" clip-rule="evenodd"/><path fill="#fff" d="M426.4 534c-.9 0-1.7-.4-2.4-1-.7-.8-1-1.7-1-2.6v-92c0-1 .3-1.8 1-2.5s1.5-1 2.4-1h37.2c12 0 21.3 2.9 28 8.5a29.1 29.1 0 0 1 10 23.8c0 6.6-1.4 12.2-4.4 16.8-3 4.6-7.2 8.1-12.4 10.6l18.7 34.8c.3.5.3 1 .3 1.5 0 .8-.3 1.5-1 2.1-.5.6-1.1.9-1.9.9h-18.2c-2.6 0-4.5-1.3-5.6-3.8l-15.6-31.2h-13.9v31.5c0 1-.3 1.9-1.1 2.6-.7.6-1.4 1-2.5 1h-17.6Zm37-55c4.1 0 7.4-1 9.5-3.1a12 12 0 0 0 3.3-9 12 12 0 0 0-3.3-8.8c-2-2.3-5.3-3.5-9.6-3.5h-15.7V479h15.7Zm95.6 56.4c-12.9 0-23-3.3-30.4-9.8-7.4-6.5-11.3-16.1-11.7-28.7a451.7 451.7 0 0 1 0-24.5c.4-12.5 4.4-22 11.9-28.8a43.5 43.5 0 0 1 30.2-10.2c12.6 0 22.7 3.4 30.2 10.2a38 38 0 0 1 12 28.8l.2 12.3c0 2.6 0 6.7-.3 12.2-.4 12.6-4.3 22.2-11.7 28.7a44.4 44.4 0 0 1-30.4 9.8Zm0-20.4c5 0 9-1.6 12-4.7 2.9-3 4.5-7.9 4.7-14.3l.3-11.6c0-2.5 0-6.4-.3-11.6-.2-6.4-1.7-11.1-4.8-14.3-3-3-7-4.6-11.9-4.6-5 0-8.9 1.5-11.9 4.6-3 3.1-4.5 8-4.8 14.3a414.7 414.7 0 0 0 0 23.3c.3 6.4 1.9 11.1 4.8 14.3 3 3 6.9 4.6 11.9 4.6Zm100.2 20.4c-13 0-23.2-3.3-30.6-9.8A38.6 38.6 0 0 1 617 497a438 438 0 0 1 0-25.2 37.6 37.6 0 0 1 12-28.2 44 44 0 0 1 30.3-10.1c8 0 15.2 1.4 21.6 4.3a34.5 34.5 0 0 1 15 11.8c3.8 5.1 5.8 11 5.8 18v.3c0 .8-.3 1.4-1 2-.5.5-1.1.7-1.9.7h-18.5c-1.2 0-2-.2-2.7-.7a6.2 6.2 0 0 1-1.7-3 17.3 17.3 0 0 0-6-10c-2.7-2-6.3-3-10.7-3-10.8 0-16.4 6.2-16.7 18.6a409.6 409.6 0 0 0 0 23.8c.3 12.5 5.9 18.7 16.7 18.7 4.4 0 8-1 10.9-3 2.8-2 4.8-5.4 5.9-10 .4-1.4.9-2.4 1.5-2.9.7-.5 1.6-.8 2.8-.8h18.5c.8 0 1.5.3 2 .8.7.5 1 1.2.9 2-.1 7-2 13-5.8 18.2-3.7 5.1-8.7 9-15 11.9a52 52 0 0 1-21.7 4.2Zm63-1.4c-1 0-1.7-.4-2.5-1-.7-.8-1-1.7-1-2.6v-92c0-1 .3-1.8 1-2.5.8-.6 1.6-1 2.5-1h17.2c1 0 1.8.3 2.5 1 .6.7 1 1.5 1 2.6v31.4l25.2-32.3c1.2-1.8 2.9-2.7 5.4-2.7H793c.9 0 1.5.3 2 1 .6.5.9 1.2.9 2 0 .7-.2 1.3-.4 1.7l-32.8 42.8 35.3 47c.4.4.5 1 .5 1.7 0 .8-.3 1.5-.8 2-.5.6-1.2 1-2 1h-20.4c-2.2 0-4-1-5.5-3l-27-34.9v34.3c0 1-.4 1.8-1 2.5-.7.7-1.5 1-2.5 1h-17.2Zm93.4 0c-.9 0-1.7-.4-2.5-1-.6-.8-1-1.7-1-2.6v-92c0-1 .4-1.8 1-2.5.8-.7 1.6-1 2.5-1h63.8a3.4 3.4 0 0 1 3.4 3.6v13.3a3.3 3.3 0 0 1-3.4 3.6h-43.6v19h40.6c1 0 1.8.5 2.5 1.2s1 1.5 1 2.6v12.3c0 1-.3 1.8-1 2.6-.7.7-1.5 1-2.5 1h-40.6v19.6h44.7c1 0 1.8.4 2.5 1 .6.7 1 1.5 1 2.6v13.3c0 1-.4 1.8-1 2.6-.7.7-1.5 1-2.5 1h-65v-.2Zm111.1 0c-.9 0-1.7-.4-2.4-1-.7-.8-1-1.7-1-2.6v-73.3H899c-1 0-1.7-.3-2.5-1-.7-.8-1-1.6-1-2.5v-15.1c0-1 .3-1.9 1-2.6.8-.7 1.6-1 2.5-1h73.6c1 0 1.8.3 2.4 1 .6.7 1 1.5 1 2.6v15c0 1-.3 2-1 2.6-.6.7-1.5 1-2.4 1h-24.4v73.3c0 1-.3 1.8-1 2.6-.6.6-1.4 1-2.4 1h-18Zm-388 132.6c-.8 0-1.7-.3-2.4-1s-1-1.6-1-2.5v-92c0-1 .3-1.8 1-2.5s1.6-1 2.5-1H577c11.7 0 20.8 2.8 27.5 8.3 6.7 5.6 10 13.8 10 24.4 0 10.5-3.2 18.5-9.9 23.9a43.5 43.5 0 0 1-27.6 7.9h-16.2v31c0 1-.4 1.8-1.2 2.5-.6.7-1.4 1-2.4 1h-18.5Zm37.7-54c4 0 7.2-1 9.5-3.1 2.2-2.2 3.4-5.4 3.4-9.5 0-3.8-1.1-7-3.3-9.2-2-2.3-5.3-3.6-9.6-3.6h-16v25.4h16Zm52.1 54c-.9 0-1.7-.3-2.5-1-.6-.7-1-1.6-1-2.5v-92c0-1 .4-1.8 1-2.5.8-.7 1.6-1 2.5-1h18c1 0 1.9.3 2.5 1 .7.7 1 1.5 1 2.5v74.2h41.4c1 0 1.8.4 2.5 1.1.6.7 1 1.5 1 2.6v14.2c0 .9-.4 1.7-1 2.5-.7.7-1.5 1-2.5 1h-62.9Zm80.9 0a3 3 0 0 1-2-.8 3.5 3.5 0 0 1-.7-3.3l32-90.9c.4-1.2 1-2 1.9-2.9.9-.7 2-1.1 3.6-1.1h20.2c1.4 0 2.6.4 3.6 1.1.9.8 1.5 1.7 1.8 2.9l32 90.9.2 1.2c0 .8-.3 1.5-1 2-.5.6-1.1 1-2 1h-16.8c-2.2 0-3.7-1-4.4-3l-5.3-14.4H736l-5.2 14.4c-.7 2-2.2 3-4.5 3h-17Zm57.5-37.8-12.7-37.3-12.7 37.3h25.4Zm65.5 37.8c-.9 0-1.7-.3-2.5-1-.6-.7-1-1.6-1-2.5v-30.5l-31.7-60.5c-.3-.9-.3-1.4-.3-1.6 0-.8.3-1.4.8-2 .6-.7 1.3-1 2.2-1h17c1.8 0 3.5 1 4.8 3l19.5 36.4 19.7-36.5c1.2-2 2.7-2.9 4.8-2.9h17c1 0 1.6.3 2.1 1 .5.5.8 1.2.8 2 0 .5 0 1-.3 1.6l-31.7 60.5v30.5c0 1-.4 1.8-1.1 2.5-.7.7-1.5 1-2.5 1h-17.6Z"/><defs><linearGradient id="a" x1="719.7" x2="662.1" y1="391.6" y2="391.6" gradientUnits="userSpaceOnUse"><stop stop-color="#FFEB3B"/><stop offset="1" stop-color="#FFC107"/></linearGradient><linearGradient id="b" x1="820.5" x2="561.3" y1="251.9" y2="251.9" gradientUnits="userSpaceOnUse"><stop stop-color="#FFEB3B"/><stop offset="1" stop-color="#FFC107"/></linearGradient></defs></svg>