<svg xmlns="http://www.w3.org/2000/svg" shape-rendering="geometricPrecision" text-rendering="geometricPrecision" viewBox="0 0 1161 1161"><defs><linearGradient id="b" x1="397.3" x2="293.61" y1="857.94" y2="413.13" gradientUnits="userSpaceOnUse" spreadMethod="pad"><stop offset="1%" stop-color="#fef683"/><stop offset="5%" stop-color="#fdc023"/><stop offset="10%" stop-color="#fee975"/><stop offset="11%" stop-color="#fff7d7"/><stop offset="16%" stop-color="#fff"/><stop offset="16%" stop-color="#feeeab"/><stop offset="19%" stop-color="#f2b413"/><stop offset="19%" stop-color="#e9a800"/><stop offset="27%" stop-color="#c76e17"/><stop offset="30%" stop-color="#bf6612"/><stop offset="35%" stop-color="#ce741b"/><stop offset="39%" stop-color="#fdc023"/><stop offset="44%" stop-color="#fbe950"/><stop offset="46%" stop-color="#ffd541"/><stop offset="48%" stop-color="#ffc328"/><stop offset="55%" stop-color="#ffe248"/><stop offset="57%" stop-color="#fbe950"/><stop offset="59%" stop-color="#ffe03a"/><stop offset="60%" stop-color="#fdc023"/><stop offset="65%" stop-color="#e6961d"/><stop offset="71%" stop-color="#c9730d"/><stop offset="75%" stop-color="#c17025"/><stop offset="80%" stop-color="#e09910"/><stop offset="83%" stop-color="#ffcd4d"/><stop offset="84%" stop-color="#ffeab5"/><stop offset="85%" stop-color="#fff7dd"/><stop offset="88%" stop-color="#fff176"/><stop offset="92%" stop-color="#ffdb1e"/><stop offset="96%" stop-color="#ffc700"/><stop offset="99%" stop-color="#ffea7d"/></linearGradient><linearGradient id="d" x1="0" x2="0" y1="-301.4" y2="301.4" gradientUnits="userSpaceOnUse" spreadMethod="pad"><stop offset="0%" stop-color="#d88626"/><stop offset="6%" stop-color="#dc8a1e"/><stop offset="7%" stop-color="#dc8a1e"/><stop offset="17%" stop-color="#a85b11"/><stop offset="37%" stop-color="#c36b18"/><stop offset="48%" stop-color="#b15a13"/><stop offset="54%" stop-color="#b15a13"/><stop offset="63%" stop-color="#c36b18"/><stop offset="78%" stop-color="#a85b11"/><stop offset="89%" stop-color="#dc8a1e"/><stop offset="100%" stop-color="#9c480d"/></linearGradient><linearGradient id="e" x1="0" x2="0" y1="-295.31" y2="295.31" gradientUnits="userSpaceOnUse" spreadMethod="pad"><stop offset="0%" stop-color="#fdc226"/><stop offset="5%" stop-color="#fdc226"/><stop offset="23%" stop-color="#e48f0e"/><stop offset="73%" stop-color="#f8ba26"/><stop offset="87%" stop-color="#ffca2f"/><stop offset="92%" stop-color="#ec9f17"/><stop offset="100%" stop-color="#e48f0e"/></linearGradient><linearGradient id="f" x1="0" x2="0" y1="-285.86" y2="285.86" gradientUnits="userSpaceOnUse" spreadMethod="pad"><stop offset="0%" stop-color="#6f280b"/><stop offset="100%" stop-color="#a7570f"/></linearGradient><linearGradient id="g" x1="0" x2="0" y1="-285.86" y2="285.86" gradientUnits="userSpaceOnUse" spreadMethod="pad"><stop offset="0%" stop-color="#cd6100"/><stop offset="100%" stop-color="#da7d26"/></linearGradient><radialGradient id="a" cx="0" cy="0" r="1" gradientTransform="rotate(58 1.32 -1.32) scale(460.83)" gradientUnits="userSpaceOnUse" spreadMethod="pad"><stop offset="72%" stop-color="#ac3020"/><stop offset="100%" stop-color="#1e0035"/></radialGradient></defs><g transform="matrix(1.76 0 0 1.76 -439.65 -440.7)"><circle r="329.36" fill="url(#a)" transform="rotate(167 257.1 323.47)"/><path fill="url(#b)" d="M259.6 655.55C218.3 478.4 328.43 301.3 505.58 260c177.16-41.3 354.24 68.83 395.54 245.98s-68.83 354.24-245.98 395.54S300.9 832.69 259.6 655.54Z"/><g mask="url(#c)"><path fill="#eece70" fill-opacity=".65" d="M261.55 655.1C220.5 479.01 329.96 303 506.04 261.95l-.91-3.9C326.9 299.61 216.11 477.78 257.65 656l3.9-.9Zm244.49-393.14c176.07-41.05 352.09 68.41 393.13 244.49l3.9-.91C861.52 327.3 683.36 216.5 505.13 258.06l.9 3.9Zm393.13 244.49c41.05 176.07-68.41 352.08-244.49 393.13l.91 3.9c178.23-41.55 289.03-219.71 247.48-397.94l-3.9.9ZM654.68 899.58C478.61 940.63 302.6 831.17 261.55 655.1l-3.9.91C299.2 834.23 477.37 945.03 655.6 903.48l-.9-3.9Z" style="mix-blend-mode:overlay"/><mask id="c" width="400%" height="400%" x="-150%" y="-150%" mask-type="luminance"><path fill="#fff" d="M259.6 655.55C218.3 478.4 328.43 301.3 505.58 260c177.16-41.3 354.24 68.83 395.54 245.98s-68.83 354.24-245.98 395.54S300.9 832.69 259.6 655.54Z"/></mask></g><circle r="301.4" fill="url(#d)" transform="rotate(165 252.15 330.62)"/><path fill="#ffe662" fill-opacity=".45" fill-rule="evenodd" d="M325.5 747.91c-90.13-141.27-48.68-328.85 92.59-418.98 141.26-90.14 328.85-48.69 418.98 92.58s48.68 328.86-92.59 418.99c-141.26 90.13-328.85 48.68-418.98-92.59Zm93.67-417.29c-140.33 89.54-181.5 275.88-91.97 416.2 89.53 140.34 275.87 181.51 416.2 91.98s181.5-275.88 91.97-416.2c-89.53-140.34-275.87-181.51-416.2-91.98Z" clip-rule="evenodd" style="mix-blend-mode:soft-light"/><circle r="295.31" fill="url(#e)" style="mix-blend-mode:multiply" transform="rotate(180 289.82 292.36)"/><circle r="286.86" fill="url(#f)" stroke="url(#g)" stroke-width="2" transform="rotate(147 203.21 378.2)"/></g></svg>