<svg xmlns="http://www.w3.org/2000/svg" shape-rendering="geometricPrecision" text-rendering="geometricPrecision" viewBox="0 0 125 125"><defs><radialGradient id="c" cx="0" cy="0" r="1" gradientTransform="matrix(-68.6 -115 121.7 -72.6 38 61.8)" gradientUnits="userSpaceOnUse" spreadMethod="pad"><stop offset="0%" stop-color="#562400"/><stop offset="28.1%" stop-color="#7d2b0a"/><stop offset="72.9%" stop-color="#a04605"/><stop offset="100%" stop-color="#4b1e00"/></radialGradient><radialGradient id="d" cx="0" cy="0" r=".5" gradientTransform="translate(.5 .5)" gradientUnits="objectBoundingBox" spreadMethod="pad"><stop offset="0%"/><stop offset="75%"/><stop offset="90%" stop-color="rgba(0,0,0,0)"/></radialGradient><linearGradient id="a" x1="90.4" x2="194.1" y1="5.5" y2="419.4" gradientUnits="userSpaceOnUse" spreadMethod="pad"><stop offset=".5%" stop-color="#fef683"/><stop offset="4.7%" stop-color="#fdc023"/><stop offset="10.4%" stop-color="#fee975"/><stop offset="10.7%" stop-color="#fff7d7"/><stop offset="15.6%" stop-color="#fff"/><stop offset="15.6%" stop-color="#feeeab"/><stop offset="18.5%" stop-color="#f2b413"/><stop offset="19.4%" stop-color="#e9a800"/><stop offset="26.7%" stop-color="#c76e17"/><stop offset="30.2%" stop-color="#bf6612"/><stop offset="35.1%" stop-color="#ce741b"/><stop offset="39.5%" stop-color="#fdc023"/><stop offset="43.5%" stop-color="#fbe950"/><stop offset="45.7%" stop-color="#ffd541"/><stop offset="48.2%" stop-color="#ffc328"/><stop offset="55%" stop-color="#ffe248"/><stop offset="57.3%" stop-color="#fbe950"/><stop offset="58.6%" stop-color="#ffe03a"/><stop offset="60.3%" stop-color="#fdc023"/><stop offset="64.8%" stop-color="#e6961d"/><stop offset="70.7%" stop-color="#c9730d"/><stop offset="74.8%" stop-color="#c17025"/><stop offset="80.3%" stop-color="#e09910"/><stop offset="83.2%" stop-color="#ffcd4d"/><stop offset="84.5%" stop-color="#ffeab5"/><stop offset="84.6%" stop-color="#fff7dd"/><stop offset="88.2%" stop-color="#fff176"/><stop offset="92.4%" stop-color="#ffdb1e"/><stop offset="95.6%" stop-color="#ffc700"/><stop offset="99.3%" stop-color="#ffea7d"/></linearGradient></defs><g transform="translate(-22.9 -22.3)"><path fill="url(#a)" d="M146.8 85.4a61.4 61.4 0 1 1-122.8 0 61.4 61.4 0 0 1 122.8 0Z"/><g mask="url(#b)"><path fill="#eece70" fill-opacity=".7" d="M145.1 85.4c0 33-26.7 59.7-59.7 59.7v3.3a63 63 0 0 0 63-63h-3.3ZM85.4 145c-33 0-59.8-26.7-59.8-59.7h-3.2a63 63 0 0 0 63 63V145ZM25.6 85.4c0-33 26.8-59.8 59.8-59.8v-3.2a63 63 0 0 0-63 63h3.2Zm59.8-59.8c33 0 59.7 26.8 59.7 59.8h3.3a63 63 0 0 0-63-63v3.2Z" style="mix-blend-mode:overlay"/><mask id="b" width="400%" height="400%" x="-150%" y="-150%" mask-type="luminance"><path fill="#fff" d="M146.8 85.4a61.4 61.4 0 1 1-122.8 0 61.4 61.4 0 0 1 122.8 0Z"/></mask></g></g><g transform="translate(-22.9 -22.3)"><circle r="53.2" fill="url(#c)" transform="translate(85.4 85.4)"/><circle r="53.2" fill="url(#d)" transform="translate(85.4 85.4)"/></g></svg>