<svg xmlns="http://www.w3.org/2000/svg" fill="none" viewBox="0 0 1400 1000"><path fill="url(#a)" fill-rule="evenodd" d="m716.4 147.7-.1 2v-.1.1-.1a21.2 21.2 0 0 1-31.6 16.6c-7.2-4.2-12-13.7-10.2-21.7 2-9.6 8.2-15.6 16.9-17.1a21 21 0 0 1 24.9 18.6v-.1c0 .1 0 0 0 0v2-.2Zm0 0-.1.2v-.2Zm74.4 316.8c1.5-1 2.6-2 3.5-3 1.2-1.4 2.2-2.5 3.9-2.9 1-.2.8-1.3.6-2.1V456.2c-1.8-10.8 1.8-15.8 13-17.5-3.6-5.4-4.7-11.1-.9-16.7 3.5-5 8.4-7.4 14.7-5.7.8-1 .1-1.7-.5-2.2l-.5-.5c-4.2-5-4.5-12-.6-17 4-5.3 11.7-7.3 17.7-4.6A15 15 0 0 1 850 408a13.7 13.7 0 0 1-13.5 11h-1.2c-1.1-.2-2.2-.3-2.8.5-.6 1 .1 1.6.9 2.2.4.4.8.7 1 1.1 2.1 4.5 2.4 9 0 13.3-3 5-7.6 7-13.6 7l1 1.9c.8 1.4 1.6 2.8 1.9 4.3 1 5.3-1 9.8-5.4 13-1.7 1.2-2 1.9-1.2 3.9a12.4 12.4 0 0 1-3.3 13.9c-.6 2.1-1 4.3-1.3 6.6-.6 3.9-1.2 7.8-3.2 11.3 2.7 9.8-3.3 16.6-9.6 18.2-8.3 2-14.7-2.3-17.5-11.6l-.4-1.3c-9.1 7.5-20.1 7-25.5-7.5-10.5 8.4-18 7.5-24.4-3l-.5.4-.9.7a13 13 0 0 1-21-.1c-1.4-2-2.4-1.9-4.2 0-7.5 7.7-14.5 4.7-20-.4l-.2-.1-.1-.1c-.9-.7-1.3-1.1-1.6-1-.3 0-.6.3-1.1 1l-.2.2-.2.2c-6 7.8-17 7.4-22.3-.8-3 4.4-6.2 8.2-12.1 8.6-5.7.3-9.5-2.7-13-6.9-3.3 13.9-14.9 17.8-25.3 8.5-1.3 4.8-2.6 9.4-7.2 12a16 16 0 0 1-15.6-1c-4-3-6.4-9.2-5.1-14l.1-.6c.4-1.2.7-2.4 0-3.4-2.8-4.1-4.6-8.3-2.7-13.4.2-.7-.4-1.2-1-1.7l-.5-.4c-4.1-4-4.8-8.9-3.5-14.2l.2-.6c.3-1 .5-1.8-.8-2.9-7.3-6.3-8-10.2-3.6-19.2-5.8-.8-11.2-2.6-13.7-8.3-2.6-5.9-1.3-11.2 3.7-16h-.8c-4.1 0-7.9.1-11.3-2a15 15 0 0 1-6.7-10.1c-1.4-5.8 2.3-12.5 7.7-15.1 6-3 13.2-1.9 18.2 4.2 3.8 4.8 3.7 11.7-1 19.2 6-.2 11.2 1.1 14.6 6.6 3.4 5.6 2.4 10.8-1.1 16.4 7.6.7 12.7 4 13.9 11.7l.2.4.1.4c-2.6 4.6-.3 6.9 2.3 9.5 1.4 1.4 2.9 2.9 3.7 4.9l.1-2.6c.1-3.8.2-6.8 2.6-9.3 1.1-1.2.3-2-1.4-2.8-5.4-2.3-8-6.5-7.7-12.5.3-5.6 3.6-8.8 8.2-11.3 4-2.2 11.5-.3 15 4 2.9 3.6 4.1 10 1.4 13.8-2 3-1.2 3.7 1.6 4.6 2 .7 3.6 2.3 5.2 4l2 2c.1-5.6 2-9.9 6.6-13.4-5-1.1-9-2.8-11.4-7-1.3-2.2-2-4.9-2-7.4.2-6 5-11.7 10.2-12.8a14.6 14.6 0 0 1 16 6.8c2.9 4.7 1.3 11.5-4.5 18 4.9 1.3 9.2 3.3 12.1 9 1.7-9 6.1-14.7 14.5-14.8 6.3 0 10.9 3.8 13.6 11.4 1.3-9.1 6-13.8 13.5-14.2 8.4-.4 12.8 5.1 15 14 1.8-4.5 3.3-7.7 6.9-9.2 3.1-1.4 6.3-2 9.7-1.3 6.5 1.5 9.7 5.6 10.6 14.3l1.6-2c1.2-1.4 2.3-2.8 3.6-3.8a22 22 0 0 1 4.8-2.4l2.2-1c-6-8-7-13.7-3.2-19.1 3-4.4 10.1-7.2 15.3-5.4 6.5 2.2 9.7 6.3 9.7 13-.1 7.7-5 12.4-13.5 13.8 5 3.7 7 8.4 7.2 13.9h.4l.1-.1h.1l.6-.1c.7-2.5 2.7-3.7 4.6-4.8a9.3 9.3 0 0 0 3.3-2.8c1-1.4.1-3.1-.7-5-.8-1.8-1.6-3.7-1.3-5.6a13.6 13.6 0 0 1 12.8-11.3c5.4-.1 12 4.5 12.8 9.4.8 5.8.3 12.5-7.8 15.3-2 .7-1.6 1.3-1 2.2l.5.6c1.8 3 3.4 6 1.7 11Zm83.9 239.9 1.2-3.3 2.2-6 8.1-21.7c6.9-18.3 13.7-36.7 21.1-54.8 1.2-2.8 2-5.9 3-9 2.4-8.6 5-17.3 14.2-22.3h-30c3.4 2.2 3.1 4.6 1.9 7.8l-10.6 28.3v.2h-.1a4872 4872 0 0 1-8.7 23.5c-.2.9-.5 1.8-1.7 1.8-1 0-1.3-1-1.5-1.8l-.2-.7-3-7.7c-1.8-4.5-3.5-9.1-5.7-13.4-3.9-7.4-3.6-14 .5-21 .6-.9.9-2 1.1-3.1l.4-1.2c1.6-5.3 4.9-9 9.9-11.3l.8-.2c.8 0 1.6 0 1.4-1.5H860.3c-2.9-.2-4.3.7-5.3 3.4l-.7 2.3c-.7 2.4-1.4 4.7-3.3 6.5a17 17 0 0 1-2.4-5.3c-.4-1.2-.9-2.5-1.5-3.7l-.4-1c-.2-1.1-.5-2.2-2.2-2.2h-25.3c4.9 2.6 8.4 5.8 10.4 10.5.5 1.2 1 2.3 1.3 3.5a54 54 0 0 0 2.3 5.4c4.4 8.8 7.4 17.5 1.3 26.7-1 1.3-1.4 2.8-1.9 4.3-.3 1.1-.7 2.3-1.2 3.3l-1 2.8c-.6 2-1.3 4-3.3 5.4l-6-15c-5-12.9-10-25.6-15.2-38.2-1.4-3.4-2.4-6.2 1.7-8.4h-36.2c6.3 4.5 8.1 6.6 9.7 10.4l10.3 25.4a11394 11394 0 0 0 30 71.4l4.1 9.5 2.9-7 20.9-51.3 13.3 30.7.4 1 11.7 27Zm-224.5-18a65 65 0 0 0 45.8 17.2c1.5.2 3.2 0 5-.4l3-.4a59 59 0 0 0 36.4-16.6 57.8 57.8 0 0 0 17.8-50.6 53.7 53.7 0 0 0-38.1-47.4 77.5 77.5 0 0 0-37.2-3 56.5 56.5 0 0 0-50.8 63 57.3 57.3 0 0 0 18 38.2Zm71-75.7c7.2 6.8 12.2 16 12.2 31.9.4 13-3.2 23.9-11.2 32.8-6 6.6-14 10.3-23.2 11.1-16 1.4-28-5.2-35.6-18.8-11.4-20.3-8.5-49.3 14.9-62 13.7-7.6 31.1-6 42.9 5Zm-228.3 90a8.8 8.8 0 0 0 0-.7c10.6-2.4 12.3-9.6 12.1-19.4-.3-18-.3-36-.2-54.1v-24c0-9.3-1.7-11.5-11-14l-.7-.5-.5-.3c.8-1 1.6-.8 2.4-.7h15.5c15.6 0 31-.1 46.5.1a46 46 0 0 1 27.7 8.4c9.6 7.3 11.7 17.3 10.1 28.5-2 14.3-11 22.1-24.5 25.5-1 .3-2.6.9-3 1.7-.4 1 .4 1.4 1.2 1.7.4.2.9.4 1.1.7l21 25.3 3.3 3.9a51 51 0 0 0 17.3 15.2c1.6.8 3.2 1.5 4.8 3h-9.7l-6.3-.1h-16.6c-2.4.1-4-.8-5.7-2.3a112 112 0 0 1-16-19l-6.1-8.3a76.1 76.1 0 0 0-17.6-17.2l-2-1.1c-5-2.3-7.3-.8-7.3 4.5v7.3l.1 22.2c.1 7.8 1.2 9 8.5 11.6 1.2.4 2.4 1 3.5 2h-48Zm35-81.4v13.1c-.1 2.7.8 3.5 3.4 3.4h8.3c5.8 0 11.5 0 17.2-1 8.6-1.5 15.3-5.7 15.6-13.9.2-7.5-5-13.7-14.7-16.3-8-2.1-16.2-1.7-24.4-1.3l-3.4.1c-2 0-2 1.2-2 2.5v.4c.1 3 0 6.2 0 9.3v3.8Zm454 26.3v-25.9l32.1 38 .1.1.3.4 39.7 46.8V602.8c-.1-6.5-.2-12.8 7.9-15.8h-36c7.5 4 8.7 5.7 8.7 14v43.6l-8.3-9.5c-13.5-15.6-26.6-30.7-39.8-45.7l-.5-.6c-.6-1-1.3-1.8-2.7-1.8h-33.3c10.8 4.3 11.8 13 11.8 22.7-.2 24.9-.3 49.8 0 74.7.2 7.6-1.6 13-9.2 15.4v.7h38.6c-9.1-2.7-9.7-9.7-9.5-17.5v-37.4ZM451.1 582c-4 6.3-9.4 5.4-14 4.7-14.6-2.3-29.1-3-43.7-.7a68 68 0 0 0-42.5 22 55.3 55.3 0 0 0 2 73.5 72.9 72.9 0 0 0 50.4 21.3c15.8 1 31-1.8 46.3-5.6 1.8-.5 3.7-1 3.9-3.2.6-5.7 1-11.3 1.5-17.4l.7-7.4a50.7 50.7 0 0 1-13.2 10.2 62 62 0 0 1-38.1 5.6 41.6 41.6 0 0 1-30.2-18.3 45.9 45.9 0 0 1-6.1-31.4c1-8.8 4.9-17 11.4-23 15.5-14.7 40.2-16.5 58.5-8.5 5 2.2 8.8 5.9 13 10.1v-1.4l.1-1.4v-29Zm244.4-377c9.4-1.2 18.8 7.5 19.2 18.9a19 19 0 0 1-18.8 19 19.4 19.4 0 0 1-19.9-19c-.4-9.2 9.5-20.7 19.5-18.8ZM531.3 215c-.2 10.3 8 19.1 18.5 18.8 10.7 0 18.4-7.8 18.5-18.3 0-10.5-7-18.5-18.6-18.7a18 18 0 0 0-18.4 18.2Zm309.3 18.7a18 18 0 0 1-18.3-18.6c.4-9.9 7.4-18.3 18.6-18.2 11.2.2 18.2 8.3 18.3 18.7 0 10.1-8 18.4-18.6 18.1Zm-210-10.9c-9.8 0-17.2 7.8-17.2 18-1 7.9 7.5 17.4 17.3 17.3 9.8-.1 18-8.2 17.9-18a18 18 0 0 0-18-17.3Zm146.3 18.3c1.5 9.7-9.3 17.1-17.3 17a17.8 17.8 0 0 1-17-18c0-9.8 9-17.4 17.3-17.3 8.3 0 18 7.2 17 18.3ZM693.4 303c11.1 1 19.6-8.2 19-16.6a17 17 0 0 0-16.9-18.2c-10.5-.2-17.3 8-17.4 16.4-.2 10.1 6.5 17.5 15.3 18.4ZM485 301.7c.1 9.8-7.4 17.4-17 17.3-10.2-.2-17.1-7.2-17.2-17.2 0-9 6.4-16.9 17-17 10.8 0 17 9 17.2 17Zm421-.1c-.1 10 6 16.4 17 17.4 9.2-.5 16.6-6.6 17-17.1.2-9-8.3-17.7-17.2-17-10.6.8-16.5 6.7-16.7 16.7Zm-342.1-33.2c-.6-8.8 7.6-17 16.8-16.9 8.7 0 16.9 7.8 16.7 16.6a17 17 0 0 1-16.9 17.1c-9.2 0-16.6-7.6-16.6-16.8Zm246.6 16.7c7 .2 17-6.2 16.2-17 1.1-8.8-8-16.5-16-16.5a16.8 16.8 0 0 0-17.2 16.7c.4 10.2 7 16.5 17 16.8Zm-115.5 65.5c-9 .1-15.7-6.2-16.4-16.1-.6-8.8 7.9-16.9 17-17 7.9 0 17.3 9.1 16.6 16.8-.8 9.9-7.4 16.9-17.2 16.3Zm-187.4 1.7c10.3-.7 15.8-6 16.7-16.1.3-8.1-6.8-15.6-14.5-16.2-10.8-.8-17.2 7-17.9 15.7-.6 8 7.7 17.1 15.7 16.6Zm32.2-37c-9.4 0-16.2-6.7-16.2-15.9 0-9 7-15.7 16.2-15.9 8.5 0 15.5 6.4 16 15.7.6 8.5-7.2 16-16 16Zm103.4-.1c9.3 0 15.9-6.6 15.9-16 0-9.2-6.4-15.5-15.6-15.5-9.6 0-16 6.2-16 15.4 0 9.7 6.3 16 15.7 16Zm239.1 36.6c-9 0-14.8-6.7-15.3-16.3-.3-7.3 6.9-15.9 16-15.5 9.3.4 16 7 15.8 16.3-.1 9.2-7 15.5-16.5 15.5Zm-30.5-36.6c9 0 15.2-6.7 15.2-16-.1-9.3-6.9-15.7-16.3-15.6-9 .1-15.3 7-15.3 16.2 0 9 6.8 15.5 16.4 15.4Zm-103.8-31.5c8.2 0 16 7.3 15.7 15.5-.5 8.7-6.4 16-16.4 16a16 16 0 0 1-15.6-16c0-8 7-16.3 16.3-15.5Zm-67.5 90.9c.4.4.4 1 0 1.4h-.2l-.3-.2c-.3 0-.6-.2-.6-.4-.2-.7.4-.8 1-.8a12.5 12.5 0 0 1 13.8-13.7c.4.4.9.4 1.3 0l.3-.1 1-.5v-.1l.4-.1-.3.1c8.8 1.4 15.3 7.9 14.3 15.3-1 8-3.7 14.5-15.6 15.7h.2l-.5.2.2-.1c-6.5-.5-11.6-3.3-14.5-9.6-.8-1.9-1.3-3.7-.5-5.7.4-.5.4-1 0-1.4Zm109.1-39.8c-8.6 0-15-6.7-15-15.4.1-7.9 7.3-15.3 15-15 9 .5 15.2 6.2 15.5 15.5.2 8.3-7 15-15.5 14.9Zm-188.8 0c8.7.3 15.2-6.3 15.3-14.9.5-8.3-6.2-15.5-15.1-15.6-7.7 0-15.6 6.3-15.2 15.8.3 8.3 5.2 14.3 15 14.7Zm65.7 10.3c0 8.7-6.5 15.2-15.3 15-9.7-.4-15-7.2-14.7-15.5.3-8.5 5.7-14.6 15.1-14.8 8-.1 15.3 6.4 15 15.3Zm57.7 0c0 9.3 8 15.2 15.2 15 8 0 15.3-7 15-15-.3-8.9-6-15.2-15-15.2-9.1 0-15.1 6.3-15.2 15.1Zm-43.3 68.3c-.1-8 5.7-13.8 13.3-14.6 9.3-.9 16.3 7.6 16.2 14 0 8.9-6 15.4-15 15.4-6.6 0-15.4-5-14.5-14.8Zm-145-25.4c10.3-.6 15.5-8.3 14.7-14.8 1.1-7.9-6.5-14.5-14.4-14.6-7.7-.1-14.4 6.5-14.5 14.2 0 8.2 6.6 15.6 14.1 15.2Zm92.3-26c0 8.4-5.8 14-14.2 14-8 0-14.5-6.5-14.5-14.1 0-7 6-15.2 15-14.7 8.2.5 13.8 6.1 13.7 14.7Zm212 12.5c.7 7.6 6.8 13.8 15.3 12.9 8.8-.6 13.9-6.6 13.4-15.9-.4-7.3-7.6-13.4-15.3-12.9-7.9.6-14.3 8-13.5 16ZM578.4 345c0 8.4-5.8 14.2-14.2 14.3-7.8 0-14.5-6.5-14.5-14.3-.1-8 6.3-14.1 14.5-14.6 7.2-.5 15.6 7 14.2 14.6ZM791 362.4c.1-8.8-5.5-15-13.9-15a14.5 14.5 0 0 0-14.7 13.8 13.9 13.9 0 0 0 14.2 14.8c8.1 0 14.2-5.7 14.4-13.6Zm49.6-17.6c1.3 7.8-7.6 14.6-14.1 14.4a15 15 0 0 1-14.6-14.4c0-7.6 6.6-14.3 14.3-14.3 8.7-.1 14.4 5.6 14.4 14.3Zm-197.3 38.5c.6 8.3 5.7 14.2 13.7 14.2 9.9.7 14.7-7.4 15-14 .3-7.7-6.5-14.3-14.2-14.5-6.5-.2-15 6.9-14.5 14.3Zm18.7 48.9c-9.2-.2-13.6-7-13.8-14.6-.1-7.5 7-14.3 14.4-14 7 .3 14.6 5.5 14.1 15-.3 8-6.2 13.7-14.7 13.6Zm56.5-48.7c.5 8 6.8 14 14.7 14 7.8-.1 14.6-6.8 14.6-14.3 0-7.2-7.5-14.3-14.8-14.2-7.3.1-14.9 7.7-14.5 14.5Zm23.7 34.9c0 8.1-6 13.7-14.5 13.7-7.3 0-14-6.7-13.9-14.2.2-8.2 6.2-14 15-14.1 7.2-.1 13.5 7 13.4 14.6Zm-161.9-22.8c7.8.5 14.1-6 14.1-13.7 0-8-5.9-14-13.9-14a13.9 13.9 0 0 0-.2 27.7ZM823.7 382c0 7.2-6.6 13.7-13.9 13.6-6.8 0-13.6-6.8-13.6-13.7 0-7.3 6.5-14 14-14s13.6 6.4 13.6 14Zm-213 14.1c-.2 7.6 5.9 13.6 13.7 13.7 8 0 14-5.8 14-13.5 0-7.5-6-13.4-13.5-13.4-8 0-14.1 5.6-14.3 13.2ZM766.2 383c7.7 0 13.5 5.9 13.4 13.7 0 7.3-6 13-13.7 13-8.8.2-13.5-5.8-13.5-14 0-7.4 6.2-13.4 13.8-12.7Zm-158.8 29.7c0-7.1-5.7-12.9-12.7-13-7.7 0-13.7 5.3-14 12.4a13.5 13.5 0 0 0 13.4 13.6c7.2 0 13.3-5.8 13.3-13Zm188.8-12.9c8.6-.7 13.4 7.2 13.2 12.5-.2 8.3-6.6 13.5-13 13.4-7.6-.2-12.7-5.2-12.8-13.2a12 12 0 0 1 12.6-12.7ZM695.4 361c-.4.4-.9.4-1.3 0v-.4l.4-.7c.8-.2.9.4 1 1v.1Z" clip-rule="evenodd"/><defs><linearGradient id="a" x1="1046.8" x2="356.3" y1="444" y2="459" gradientUnits="userSpaceOnUse"><stop stop-color="#EDD869"/><stop offset=".3" stop-color="#FFFB67"/><stop offset=".5" stop-color="#E9CF48"/><stop offset="1" stop-color="#D6A82E"/></linearGradient></defs></svg>