<svg xmlns="http://www.w3.org/2000/svg" id="ehiFo9yua0D1" shape-rendering="geometricPrecision" text-rendering="geometricPrecision" viewBox="0 0 2500 2500"><style>@keyframes ehiFo9yua0D2_to__to{0%{transform:translate(0,255.923706px);animation-timing-function:cubic-bezier(.42,0,.58,1)}33.333333%,to{transform:translate(0,0)}}@keyframes ehiFo9yua0D5_to__to{0%,33.333333%{transform:translate(241.984429px,1425.601967px)}66.666667%,to{transform:translate(2445.049635px,1425.601967px)}}@keyframes ehiFo9yua0D15_to__to{0%{transform:translate(776.560486px,-736.492958px);animation-timing-function:cubic-bezier(.42,0,.58,1)}33.333333%,to{transform:translate(776.560486px,46.173107px)}}@keyframes ehiFo9yua0D16_to__to{0%{transform:translate(791.381014px,-513.071897px);animation-timing-function:cubic-bezier(.42,0,.58,1)}33.333333%,to{transform:translate(776.60025px,211.509888px)}}@keyframes ehiFo9yua0D17_to__to{0%{transform:translate(1665.52289px,-690.320582px);animation-timing-function:cubic-bezier(.42,0,.58,1)}33.333333%,to{transform:translate(1092.584595px,192.965256px)}}@keyframes ehiFo9yua0D18_to__to{0%{transform:translate(-316.887898px,-690.320087px);animation-timing-function:cubic-bezier(.42,0,.58,1)}33.333333%,to{transform:translate(460.40303px,192.965057px)}}@keyframes ehiFo9yua0D19_to__to{0%{transform:translate(307.441622px,-112.92208px);animation-timing-function:cubic-bezier(.42,0,.58,1)}33.333333%,to{transform:translate(776.560242px,346.143997px)}}@keyframes ehiFo9yua0D20_to__to{0%{transform:translate(1539.830593px,-372.402963px);animation-timing-function:cubic-bezier(.42,0,.58,1)}33.333333%,to{transform:translate(916.572998px,247.503784px)}}@keyframes ehiFo9yua0D21_to__to{0%{transform:translate(197.154027px,-432.710562px);animation-timing-function:cubic-bezier(.42,0,.58,1)}33.333333%,to{transform:translate(636.115021px,247.511436px)}}@keyframes ehiFo9yua0D22_to__to{0%{transform:translate(1776.962166px,-33.627915px);animation-timing-function:cubic-bezier(.42,0,.58,1)}33.333333%,to{transform:translate(1026.372375px,308.158508px)}}@keyframes ehiFo9yua0D23_to__to{0%{transform:translate(1981.223252px,-348.893297px);animation-timing-function:cubic-bezier(.42,0,.58,1)}33.333333%,to{transform:translate(1270.843628px,381.44429px)}}@keyframes ehiFo9yua0D24_to__to{0%{transform:translate(816.297173px,-132.968357px);animation-timing-function:cubic-bezier(.42,0,.58,1)}33.333333%,to{transform:translate(776.087006px,452.029587px)}}@keyframes ehiFo9yua0D25_to__to{0%{transform:translate(-36.339866px,-248.089572px);animation-timing-function:cubic-bezier(.42,0,.58,1)}33.333333%,to{transform:translate(526.602478px,308.151077px)}}@keyframes ehiFo9yua0D26_to__to{0%{transform:translate(-426.297966px,-276.425456px);animation-timing-function:cubic-bezier(.42,0,.58,1)}33.333333%,to{transform:translate(281.343864px,381.430542px)}}@keyframes ehiFo9yua0D27_to__to{0%{transform:translate(505.671463px,-284.566911px);animation-timing-function:cubic-bezier(.42,0,.58,1)}33.333333%,to{transform:translate(663.161285px,375.550003px)}}@keyframes ehiFo9yua0D28_to__to{0%{transform:translate(953.545766px,-322.968981px);animation-timing-function:cubic-bezier(.42,0,.58,1)}33.333333%,to{transform:translate(889.879669px,375.543503px)}}@keyframes ehiFo9yua0D29_to__to{0%{transform:translate(-344.913912px,227.571691px);animation-timing-function:cubic-bezier(.42,0,.58,1)}33.333333%,to{transform:translate(368.816559px,455.429306px)}}@keyframes ehiFo9yua0D30_to__to{0%{transform:translate(1185.572444px,-327.934962px);animation-timing-function:cubic-bezier(.42,0,.58,1)}33.333333%,to{transform:translate(1115.204651px,375.742966px)}}@keyframes ehiFo9yua0D31_to__to{0%{transform:translate(1575.697997px,16.475163px);animation-timing-function:cubic-bezier(.42,0,.58,1)}33.333333%,to{transform:translate(1183.648865px,455.436157px)}}@keyframes ehiFo9yua0D32_to__to{0%{transform:translate(-155.26983px,.448283px);animation-timing-function:cubic-bezier(.42,0,.58,1)}33.333333%,to{transform:translate(437.830139px,375.743179px)}}@keyframes ehiFo9yua0D33_to__to{0%{transform:translate(553.933051px,163.784589px);animation-timing-function:cubic-bezier(.42,0,.58,1)}33.333333%,to{transform:translate(776.527496px,541.989151px)}}@keyframes ehiFo9yua0D34_to__to{0%{transform:translate(1239.874769px,31.08385px);animation-timing-function:cubic-bezier(.42,0,.58,1)}33.333333%,to{transform:translate(981.859528px,419.782135px)}}@keyframes ehiFo9yua0D35_to__to{0%{transform:translate(185.887304px,44.488902px);animation-timing-function:cubic-bezier(.42,0,.58,1)}33.333333%,to{transform:translate(571.234741px,419.783798px)}}@keyframes ehiFo9yua0D36_to__to{0%{transform:translate(1079.332274px,-4.207524px);animation-timing-function:cubic-bezier(.42,0,.58,1)}33.333333%,to{transform:translate(871.579742px,474.963638px)}}@keyframes ehiFo9yua0D37_to__to{0%{transform:translate(617.287851px,39.352362px);animation-timing-function:cubic-bezier(.42,0,.58,1)}33.333333%,to{transform:translate(680.953949px,474.962509px)}}@keyframes ehiFo9yua0D38_to__to{0%{transform:translate(836.406601px,86.830516px);animation-timing-function:cubic-bezier(.42,0,.58,1)}33.333333%,to{transform:translate(776.527924px,624.081543px)}}@keyframes ehiFo9yua0D39_to__to{0%{transform:translate(361.015688px,110.670832px);animation-timing-function:cubic-bezier(.42,0,.58,1)}33.333333%,to{transform:translate(599.269165px,511.015533px)}}@keyframes ehiFo9yua0D40_to__to{0%{transform:translate(-135.949699px,425.73805px);animation-timing-function:cubic-bezier(.42,0,.58,1)}33.333333%,to{transform:translate(430.343491px,536.31601px)}}@keyframes ehiFo9yua0D41_to__to{0%{transform:translate(1177.91845px,313.31623px);animation-timing-function:cubic-bezier(.42,0,.58,1)}33.333333%,to{transform:translate(953.411682px,511.01622px)}}@keyframes ehiFo9yua0D42_to__to{0%{transform:translate(928.894282px,220.306765px);animation-timing-function:cubic-bezier(.42,0,.58,1)}33.333333%,to{transform:translate(858.526489px,558.74234px)}}@keyframes ehiFo9yua0D43_to__to{0%{transform:translate(1672.119337px,184.4768px);animation-timing-function:cubic-bezier(.42,0,.58,1)}33.333333%,to{transform:translate(1122.580383px,536.315765px)}}@keyframes ehiFo9yua0D44_to__to{0%{transform:translate(636.354251px,482.571494px);animation-timing-function:cubic-bezier(.42,0,.58,1)}33.333333%,to{transform:translate(705.247833px,633.687225px)}}@keyframes ehiFo9yua0D45_to__to{0%{transform:translate(374.012239px,181.898612px);animation-timing-function:cubic-bezier(.42,0,.58,1)}33.333333%,to{transform:translate(694.467896px,558.754761px)}}@keyframes ehiFo9yua0D46_to__to{0%{transform:translate(857.759054px,506.355731px);animation-timing-function:cubic-bezier(.42,0,.58,1)}33.333333%,to{transform:translate(847.706512px,633.687927px)}}@keyframes ehiFo9yua0D47_to__to{0%{transform:translate(1372.988783px,136.261477px);animation-timing-function:cubic-bezier(.42,0,.58,1)}33.333333%,to{transform:translate(1061.359985px,474.697052px)}}@keyframes ehiFo9yua0D48_to__to{0%{transform:translate(-10.824037px,233.435574px);animation-timing-function:cubic-bezier(.42,0,.58,1)}33.333333%,to{transform:translate(491.803055px,474.696579px)}}@keyframes ehiFo9yua0D49_to__to{0%{transform:translate(191.655995px,337.063517px);animation-timing-function:cubic-bezier(.42,0,.58,1)}33.333333%,to{transform:translate(526.740723px,554.868591px)}}@keyframes ehiFo9yua0D50_to__to{0%{transform:translate(1057.844648px,188.051054px);animation-timing-function:cubic-bezier(.42,0,.58,1)}33.333333%,to{transform:translate(930.512451px,586.80188px)}}@keyframes ehiFo9yua0D51_to__to{0%{transform:translate(1099.149853px,404.080372px);animation-timing-function:cubic-bezier(.42,0,.58,1)}33.333333%,to{transform:translate(1025.431213px,554.8685px)}}@keyframes ehiFo9yua0D52_to__to{0%{transform:translate(448.284537px,472.866205px);animation-timing-function:cubic-bezier(.42,0,.58,1)}33.333333%,to{transform:translate(622.528595px,586.795013px)}}@keyframes ehiFo9yua0D53_to__to{0%{transform:translate(382.42394px,554.991203px);animation-timing-function:cubic-bezier(.42,0,.58,1)}33.333333%,to{transform:translate(556.667999px,622.008148px)}}@keyframes ehiFo9yua0D54_to__to{0%{transform:translate(1153.768234px,471.226552px);animation-timing-function:cubic-bezier(.42,0,.58,1)}33.333333%,to{transform:translate(996.278412px,622.014679px)}}@keyframes ehiFo9yua0D55_to__to{0%{transform:translate(96.475124px,456.79104px);animation-timing-function:cubic-bezier(.42,0,.58,1)}33.333333%,to{transform:translate(471px,606px)}}@keyframes ehiFo9yua0D56_to__to{0%{transform:translate(284.651001px,575px);animation-timing-function:cubic-bezier(.42,0,.58,1)}33.333333%,to{transform:translate(500px,659px)}}@keyframes ehiFo9yua0D57_to__to{0%{transform:translate(354.469991px,669.5px);animation-timing-function:cubic-bezier(.42,0,.58,1)}33.333333%,to{transform:translate(525.5px,706.5px)}}@keyframes ehiFo9yua0D58_to__to{0%{transform:translate(412.363001px,668.070333px);animation-timing-function:cubic-bezier(.42,0,.58,1)}33.333333%,to{transform:translate(539px,748px)}}@keyframes ehiFo9yua0D59_to__to{0%{transform:translate(469.863001px,596.5px);animation-timing-function:cubic-bezier(.42,0,.58,1)}33.333333%,to{transform:translate(581.5px,679.5px)}}@keyframes ehiFo9yua0D60_to__to{0%{transform:translate(536.171497px,529.732873px);animation-timing-function:cubic-bezier(.42,0,.58,1)}33.333333%,to{transform:translate(640.5px,656.5px)}}@keyframes ehiFo9yua0D61_to__to{0%{transform:translate(517.287904px,663px);animation-timing-function:cubic-bezier(.42,0,.58,1)}33.333333%,to{transform:translate(597px,731px)}}@keyframes ehiFo9yua0D62_to__to{0%{transform:translate(695.961976px,580px);animation-timing-function:cubic-bezier(.42,0,.58,1)}33.333333%,to{transform:translate(656.5px,712.5px)}}@keyframes ehiFo9yua0D63_to__to{0%{transform:translate(508.370942px,412.147095px);animation-timing-function:cubic-bezier(.42,0,.58,1)}33.333333%,to{transform:translate(716.5px,698.5px)}}@keyframes ehiFo9yua0D64_to__to{0%{transform:translate(756.961976px,482.057792px);animation-timing-function:cubic-bezier(.42,0,.58,1)}33.333333%,to{transform:translate(776.5px,691.5px)}}@keyframes ehiFo9yua0D65_to__to{0%{transform:translate(857.358542px,609.5px);animation-timing-function:cubic-bezier(.42,0,.58,1)}33.333333%,to{transform:translate(836.5px,699.5px)}}@keyframes ehiFo9yua0D66_to__to{0%{transform:translate(1372.988801px,540.5px);animation-timing-function:cubic-bezier(.42,0,.58,1)}33.333333%,to{transform:translate(838.5px,729.5px)}}@keyframes ehiFo9yua0D67_to__to{0%{transform:translate(870.5px,701.570333px);animation-timing-function:cubic-bezier(.42,0,.58,1)}33.333333%,to{transform:translate(828.5px,777.5px)}}@keyframes ehiFo9yua0D68_to__to{0%{transform:translate(947.987367px,732px);animation-timing-function:cubic-bezier(.42,0,.58,1)}33.333333%,to{transform:translate(884.5px,781.5px)}}@keyframes ehiFo9yua0D69_to__to{0%{transform:translate(941.019001px,583.005055px);animation-timing-function:cubic-bezier(.42,0,.58,1)}33.333333%,to{transform:translate(886.5px,748.5px)}}@keyframes ehiFo9yua0D70_to__to{0%{transform:translate(1272.79582px,425.73804px);animation-timing-function:cubic-bezier(.42,0,.58,1)}33.333333%,to{transform:translate(941.5px,751.5px)}}@keyframes ehiFo9yua0D71_to__to{0%{transform:translate(1053.971197px,714.5px);animation-timing-function:cubic-bezier(.42,0,.58,1)}33.333333%,to{transform:translate(938.5px,796.5px)}}@keyframes ehiFo9yua0D72_to__to{0%{transform:translate(1363.490001px,741px);animation-timing-function:cubic-bezier(.42,0,.58,1)}33.333333%,to{transform:translate(994.5px,815.5px)}}@keyframes ehiFo9yua0D73_to__to{0%{transform:translate(1187.268139px,743.5px);animation-timing-function:cubic-bezier(.42,0,.58,1)}33.333333%,to{transform:translate(998.5px,781.5px)}}@keyframes ehiFo9yua0D74_to__to{0%{transform:translate(1274.750001px,611.5px);animation-timing-function:cubic-bezier(.42,0,.58,1)}33.333333%,to{transform:translate(982.5px,764.5px)}}@keyframes ehiFo9yua0D75_to__to{0%{transform:translate(1001.5px,503.366192px);animation-timing-function:cubic-bezier(.42,0,.58,1)}33.333333%,to{transform:translate(896.5px,712.5px)}}@keyframes ehiFo9yua0D76_to__to{0%{transform:translate(998.5px,358.178163px);animation-timing-function:cubic-bezier(.42,0,.58,1)}33.333333%,to{transform:translate(972.5px,681.5px)}}@keyframes ehiFo9yua0D77_to__to{0%{transform:translate(1047.832032px,594.5px);animation-timing-function:cubic-bezier(.42,0,.58,1)}33.333333%,to{transform:translate(954.5px,729.5px)}}@keyframes ehiFo9yua0D78_to__to{0%{transform:translate(1403.488801px,625px);animation-timing-function:cubic-bezier(.42,0,.58,1)}33.333333%,to{transform:translate(1012.5px,748.5px)}}@keyframes ehiFo9yua0D79_to__to{0%{transform:translate(910.519001px,344.815971px);animation-timing-function:cubic-bezier(.42,0,.58,1)}33.333333%,to{transform:translate(910.5px,655.5px)}}@keyframes ehiFo9yua0D80_to__to{0%{transform:translate(1175.29582px,571px);animation-timing-function:cubic-bezier(.42,0,.58,1)}33.333333%,to{transform:translate(1026.5px,709.5px)}}@keyframes ehiFo9yua0D81_to__to{0%{transform:translate(1403.488801px,388.678163px);animation-timing-function:cubic-bezier(.42,0,.58,1)}33.333333%,to{transform:translate(1052.5px,658.5px)}}@keyframes ehiFo9yua0D82_to__to{0%{transform:translate(1543.650001px,344.315971px);animation-timing-function:cubic-bezier(.42,0,.58,1)}33.333333%,to{transform:translate(1082px,606px)}}@keyframes ehiFo9yua0D83_to__to{0%{transform:translate(390.197942px,777px);animation-timing-function:cubic-bezier(.42,0,.58,1)}33.333333%,to{transform:translate(549.5px,783.5px)}}@keyframes ehiFo9yua0D84_to__to{0%{transform:translate(615.874902px,629px);animation-timing-function:cubic-bezier(.42,0,.58,1)}33.333333%,to{transform:translate(597px,759px)}}@keyframes ehiFo9yua0D85_to__to{0%{transform:translate(550.700906px,771.5px);animation-timing-function:cubic-bezier(.42,0,.58,1)}33.333333%,to{transform:translate(610px,797px)}}@keyframes ehiFo9yua0D86_to__to{0%{transform:translate(361.697942px,399.633872px);animation-timing-function:cubic-bezier(.42,0,.58,1)}33.333333%,to{transform:translate(656px,735px)}}@keyframes ehiFo9yua0D87_to__to{0%{transform:translate(469.863001px,749px);animation-timing-function:cubic-bezier(.42,0,.58,1)}33.333333%,to{transform:translate(656px,756px)}}@keyframes ehiFo9yua0D88_to__to{0%{transform:translate(649.874902px,732px);animation-timing-function:cubic-bezier(.42,0,.58,1)}33.333333%,to{transform:translate(668px,782px)}}@keyframes ehiFo9yua0D89_to__to{0%{transform:translate(710.733108px,254.306925px);animation-timing-function:cubic-bezier(.42,0,.58,1)}33.333333%,to{transform:translate(716px,716px)}}@keyframes ehiFo9yua0D90_to__to{0%{transform:translate(583.287904px,307.510234px);animation-timing-function:cubic-bezier(.42,0,.58,1)}33.333333%,to{transform:translate(718px,743px)}}@keyframes ehiFo9yua0D91_to__to{0%{transform:translate(726.881px,749px);animation-timing-function:cubic-bezier(.42,0,.58,1)}33.333333%,to{transform:translate(721px,777px)}}@keyframes ehiFo9yua0D92_to__to{0%{transform:translate(795px,354.678163px);animation-timing-function:cubic-bezier(.42,0,.58,1)}33.333333%,to{transform:translate(776px,714px)}}@keyframes ehiFo9yua0D93_to__to{0%{transform:translate(756.961976px,655.5px);animation-timing-function:cubic-bezier(.42,0,.58,1)}33.333333%,to{transform:translate(777px,743px)}}@keyframes ehiFo9yua0D94_to__to{0%{transform:translate(803px,749px);animation-timing-function:cubic-bezier(.42,0,.58,1)}33.333333%,to{transform:translate(777px,775px)}}@keyframes ehiFo9yua0D95_to__to{0%{transform:translate(440.377941px,812px);animation-timing-function:cubic-bezier(.42,0,.58,1)}33.333333%,to{transform:translate(558px,819px)}}</style><defs><linearGradient id="ehiFo9yua0D4-fill" x1="0" x2="754.98" y1="484.73" y2="492.84" gradientUnits="userSpaceOnUse" spreadMethod="pad"><stop id="ehiFo9yua0D4-fill-0" offset="0%" stop-color="#b69f6c"/><stop id="ehiFo9yua0D4-fill-1" offset="41.15%" stop-color="#dac38d"/><stop id="ehiFo9yua0D4-fill-2" offset="56.25%" stop-color="#dac38d"/><stop id="ehiFo9yua0D4-fill-3" offset="100%" stop-color="#908056"/></linearGradient><linearGradient id="ehiFo9yua0D5-fill" x1="0" x2="1" y1=".5" y2=".5" gradientUnits="objectBoundingBox" spreadMethod="pad"><stop id="ehiFo9yua0D5-fill-0" offset="10%" stop-color="rgba(255,255,255,0)"/><stop id="ehiFo9yua0D5-fill-1" offset="49%" stop-color="rgba(255,255,255,0.86)"/><stop id="ehiFo9yua0D5-fill-2" offset="87%" stop-color="rgba(255,255,255,0)"/></linearGradient></defs><g style="animation:ehiFo9yua0D2_to__to 3000ms linear 1 normal forwards" transform="translate(0 255.92)"><g mask="url(#ehiFo9yua0D6)"><g><rect width="755" height="537" fill="url(#ehiFo9yua0D4-fill)" rx="0" ry="0" transform="matrix(3.3 0 0 3.9 -6.99 14.08)"/></g><g style="animation:ehiFo9yua0D5_to__to 3000ms linear 1 normal forwards" transform="translate(241.98 1425.6)"><rect width="573.32" height="875.4" fill="url(#ehiFo9yua0D5-fill)" stroke-width="0" rx="0" ry="0" transform="matrix(1 .1 -.3 2 -160.19 -949.38)"/></g><mask id="ehiFo9yua0D6" width="400%" height="400%" x="-150%" y="-150%" mask-type="alpha"><g><g transform="translate(462.54 798.43)"><path d="m1110.18 1131.35-50.4 123.92c-1.93-3.81-3.19-5.95-4.13-8.23-31.18-74.21-62.4-148.41-93.4-222.69-3.84-9.22-8.54-17.02-18.66-20.2-.7-.22-1.21-1.06-2.57-2.33h79.48c-9.53 5.25-6.12 11.95-3.24 19.11 14.55 36.2 28.84 72.51 43.25 108.77.87 2.17 2.02 4.25 3.44 7.21 1.19-2.16 2.04-3.4 2.59-4.76 7.02-17.72 14.14-35.41 20.84-53.27.94-2.52.5-6.1-.54-8.7-6.13-15.45-12.8-30.71-18.96-46.15-3.48-8.73-9.11-15.06-17.77-18.77-1.52-.65-2.86-1.67-4.05-3.99h17.62c11.11 0 22.23.27 33.32-.12 5.12-.17 7.58 1.67 9.18 6.39 2.37 7.04 5.41 13.85 8.17 20.76l1.83.19c2.85-7 6.05-13.9 8.45-21.04 1.61-4.82 4.16-6.46 9.19-6.3 11.98.36 23.98.11 35.98.15 1.88 0 3.76.28 6.64.51-1.45 1.33-1.96 2.16-2.65 2.38-13.71 4.56-21.31 14.52-25 28-.17.64-.45 1.26-.68 1.88-3.55 9.76-9.85 19.54-9.84 29.3.03 9.52 6.45 19.03 10.2 28.51 5.21 13.19 10.55 26.35 15.87 39.5.89 2.21 2 4.34 3.62 7.89 1.6-3.52 2.78-5.77 3.67-8.13 13.87-36.71 27.61-73.45 41.6-110.11 2.71-7.1 5.63-13.7-3.41-19.06h64.93c-.04.34 0 .69-.08.72-15 4.94-19.35 17.93-24.24 31-26.45 70.57-53.19 141.03-79.85 211.53-1.06 2.8-2.38 5.5-4.39 10.16l-53.83-123.96-2.18-.1v.03ZM776.22 994.45c37.2 1 71.25 10.18 99.35 35.73 22.65 20.58 34.72 46.56 38.04 76.9 8.76 80-47.88 136.22-112.28 146.04-60.95 9.31-126.5-16.42-152.56-78.29-30.43-72.25 4.2-159.54 93.18-176.28 11.28-2.12 22.84-2.77 34.27-4.1Zm-82.87 126.43c.32 21.83 4.07 39.95 13.8 56.38 15.84 26.73 39.22 41.84 70.62 40.92 31.77-.94 55.9-15.87 70.33-44.78 11.53-23.09 13.6-47.53 8.81-72.62-12.17-63.95-70.77-79.2-113.2-60.31-35.66 15.87-48.72 46.33-50.36 80.43v-.02ZM497.05 1139.43c22.92 27.57 45.3 54.53 67.7 81.47 9.3 11.16 20.67 19.38 34.43 24.25 1.4.49 2.7 1.27 4.18 1.96-.56.56-.86 1.09-1.14 1.09-24.44.1-48.86.24-73.3.03-2.44-.03-5.24-1.93-7.27-3.68-18.75-16.12-31.24-37.39-46.53-56.36-11.76-14.57-25.99-27.17-39.27-40.51-5.3-5.32-12.24-4.66-18.87-3.89-1.33.16-3.37 2.83-3.38 4.35-.18 25.1-.24 50.21.06 75.3.11 9 4.79 15.51 13.31 18.95 3.88 1.56 7.79 3.07 11.61 5.4h-102.2c4.8-2.09 7.98-3.61 11.27-4.89 10.12-3.94 14.79-11.34 14.77-22.12-.05-63.76-.05-127.52 0-191.28 0-11.32-4.8-19.05-15.76-22.71a33.68 33.68 0 0 1-9.78-4.9c1.5-.19 3.01-.54 4.5-.54 42.43-.02 84.87-.28 127.3.12 17.09.16 34 2.48 50.1 9.07 29 11.87 42.27 35.61 39.28 66.58-3.58 37.31-27.14 52.98-53.94 60.39l-7.08 1.93v-.01Zm-84.75-67.75c0 9.55.2 19.1-.08 28.63-.16 5.28 1.38 7.68 7.1 7.51 11.74-.35 23.6.66 35.26-.43 12.24-1.13 24.95-2.36 36.32-6.6 21.32-7.95 25.43-35.08 7.9-49.77-6.4-5.36-14.76-10.43-22.75-11.4-19.7-2.39-39.7-2.44-59.59-3.03-1.33-.04-3.88 3.28-3.94 5.12-.4 9.98-.19 19.97-.2 29.96l-.02.01ZM1331.47 1001.33c15.48 0 30.97-.04 46.45.01 8.66.03 18.54-2.37 25.63 1.01 7.6 3.63 12.68 12.66 18.68 19.5 28.84 32.92 57.61 65.89 86.38 98.87 1.55 1.78 2.72 3.88 4.07 5.84l2.31-1.38c.16-2.3.45-4.59.45-6.88.03-26 .08-51.99-.04-77.99-.03-6.2-.51-12.41-1.13-18.58-.7-6.83-3.87-12.18-10.39-15.15-2.55-1.16-5.04-2.44-7.25-4.71h78.02c-1.28 1.16-1.8 2.02-2.5 2.22-12.99 3.88-16.12 13.6-16.1 25.81.12 71.77.04 143.53.03 215.3v7.72l-2 .96-153.41-180.53-1.88.51v7.52c0 43.33.31 86.65-.16 129.98-.17 16.27 1.24 30.64 20.09 36.42h-82.54c1.8-1.1 2.88-2.06 4.13-2.48 12.37-4.23 16.76-13.51 16.72-25.8-.07-21.11.01-42.22.01-63.32 0-35.55.06-71.11-.05-106.65-.01-5.75-.61-11.51-1.25-17.22-1.27-11.45-7.27-19.77-17.34-25.25-2.46-1.35-4.94-2.68-7.41-4.01l.51-1.71-.03-.01ZM244.85 996.76v60.66c-1.18-.42-1.97-.44-2.34-.86-17.5-19.28-39.98-26.81-65.27-28.51-25.44-1.72-49.64 1.99-71.59 15.41-25.16 15.38-38.7 38.18-41.65 67.57-2.5 25 1.85 48.25 16.85 68.72 15.6 21.27 37.7 31.85 63.15 35.79 25.94 4.01 51.6 2 75.48-9.24 11.04-5.2 20.56-13.62 30.75-20.6 1.18-.82 2.25-1.79 4.42-3.54-1.05 12.43-1.97 23.56-2.97 34.7-.52 5.73-.83 11.53-2.03 17.13-.46 2.19-2.84 5.08-4.88 5.63-31.53 8.53-63.44 15.26-96.33 13.93-39.73-1.61-76.68-11.79-107.4-38.57-23.6-20.58-37.17-46.52-40.12-77.84-6.72-71.44 40.16-112.76 86.4-129.13 31.39-11.11 63.76-12.48 96.5-9.93 14.14 1.11 28.2 3.37 42.34 3.71 6.1.15 12.28-3.2 18.68-5.04l.01.02Z"/></g><g transform="translate(462.54 798.43)"><g style="animation:ehiFo9yua0D15_to__to 3000ms linear 1 normal forwards" transform="translate(776.56 -736.5)"><path d="M-46.18.16c0-25.4 20.84-46.32 46.15-46.33 25.1 0 46.2 21.17 46.21 46.42C46.19 25 25.08 46.08.21 46.17c-25.42.1-46.39-20.72-46.39-46.02v.01Z"/></g><g style="animation:ehiFo9yua0D16_to__to 3000ms linear 1 normal forwards" transform="translate(791.38 -513.07)"><path d="M42.17.14C42.1 23.06 22.9 42.3.15 42.15-22.65 42.02-42.03 22.8-42.17.18-42.3-22.6-22.35-42.43.45-42.15c23.04.28 41.77 19.27 41.72 42.3Z"/></g><g style="animation:ehiFo9yua0D17_to__to 3000ms linear 1 normal forwards" transform="translate(1665.52 -690.32)"><path d="M-.23 39.69C-22.71 39.58-39.75 22.03-39.6-.86c.15-21.6 17.92-38.93 39.77-38.83C22.25-39.57 39.68-21.9 39.6.26 39.53 22.39 21.96 39.78-.23 39.67v.02Z"/></g><g style="animation:ehiFo9yua0D18_to__to 3000ms linear 1 normal forwards" transform="translate(-316.89 -690.32)"><path d="M-39.71-.13C-39.7-22.5-22.03-39.78.75-39.69c21.36.1 39 18.18 38.96 39.9-.05 21.9-17.94 39.58-39.97 39.48-22.28-.11-39.47-17.46-39.45-39.82Z"/></g><g style="animation:ehiFo9yua0D19_to__to 3000ms linear 1 normal forwards" transform="translate(307.44 -112.92)"><path d="M.09-38.21C20.79-38.2 38.13-20.8 38.18 0c.05 20.76-17.32 38.16-38.12 38.2A38.13 38.13 0 0 1-38.18-.35c.12-20.9 17.3-37.89 38.27-37.86Z"/></g><g style="animation:ehiFo9yua0D20_to__to 3000ms linear 1 normal forwards" transform="translate(1539.83 -372.4)"><path d="M-.2 38.2c-20.82-.08-37.97-17.35-38-38.24C-38.2-20.85-20.33-38.4.68-38.2 21.3-38 38.17-20.56 38.2.56c0 20.79-17.28 37.72-38.4 37.64Z"/></g><g style="animation:ehiFo9yua0D21_to__to 3000ms linear 1 normal forwards" transform="translate(197.15 -432.71)"><path d="M37.84.42c0 21.28-16.7 37.87-38.08 37.79A37.86 37.86 0 0 1-37.84.43C-37.87-20.79-21.04-38.1-.29-38.2 21.04-38.3 37.84-21.3 37.84.41v.01Z"/></g><g style="animation:ehiFo9yua0D22_to__to 3000ms linear 1 normal forwards" transform="translate(1776.96 -33.63)"><path d="M.09-36.21c19.82.08 36.24 16.28 36.28 35.85C36.42 19.59 19.3 36.39-.87 36.2c-19.75-.17-35.58-16.44-35.5-36.46C-36.29-20.8-20.57-36.3.1-36.21Z"/></g><g style="animation:ehiFo9yua0D23_to__to 3000ms linear 1 normal forwards" transform="translate(1981.22 -348.9)"><path d="M36.26-.02C36.23 20.41 20.18 36.45-.01 36.23c-19.71-.21-36-16.41-36.24-36.09C-36.5-19.83-19.7-36.34.84-36.23c20.02.1 35.46 15.89 35.42 36.22v-.01Z"/></g><g style="animation:ehiFo9yua0D24_to__to 3000ms linear 1 normal forwards" transform="translate(816.3 -132.97)"><path d="M36.24-.4C36.25 20.01 20.23 36.4.29 36.3c-19.61-.08-36.56-17.1-36.53-36.7.03-19.84 16.59-35.98 36.87-35.92 20.32.05 35.6 15.46 35.61 35.9Z"/></g><g style="animation:ehiFo9yua0D25_to__to 3000ms linear 1 normal forwards" transform="translate(-36.34 -248.09)"><path d="M36.2.06A36.3 36.3 0 0 1-.26 36.21C-19.86 36.07-36.23 19.59-36.21.06c.03-20.43 16.31-36.39 37-36.27C20.7-36.1 36.25-20.15 36.21.07V.06Z"/></g><g style="animation:ehiFo9yua0D26_to__to 3000ms linear 1 normal forwards" transform="translate(-426.3 -276.43)"><path d="M36.24-.2C36.27 20.32 20.48 36.3.2 36.22-19.67 36.17-36.4 19.37-36.24-.34c.17-19.6 16.56-35.84 36.23-35.9C20.63-36.28 36.2-20.8 36.24-.2Z"/></g><g style="animation:ehiFo9yua0D27_to__to 3000ms linear 1 normal forwards" transform="translate(505.67 -284.57)"><path d="M34.42.26c0 19.39-15.01 34.05-34.83 34.04-19.64 0-34.1-14.77-34-34.7.08-18.89 15.3-33.89 34.39-33.9C19.31-34.31 34.42-19.15 34.42.27V.26Z"/></g><g style="animation:ehiFo9yua0D28_to__to 3000ms linear 1 normal forwards" transform="translate(953.55 -322.97)"><path d="M-.23 34.3C-19.75 34.29-34.31 19.77-34.34.29-34.37-19.4-19.5-34.33.07-34.31c19.27.04 34.36 15.42 34.27 34.92-.1 19.15-15.04 33.72-34.57 33.7Z"/></g><g style="animation:ehiFo9yua0D29_to__to 3000ms linear 1 normal forwards" transform="translate(-344.91 227.57)"><path d="M34.27.29C34.2 19.59 19.35 34.35.07 34.3c-18.85-.05-34.5-15.72-34.34-34.37C-34.11-19.3-18.65-34.41.77-34.3c19.29.1 33.58 14.87 33.5 34.57V.3Z"/></g><g style="animation:ehiFo9yua0D30_to__to 3000ms linear 1 normal forwards" transform="translate(1185.57 -327.93)"><path d="M.2 34.23c-19.46.08-34.42-14.5-34.54-33.64C-34.46-18.65-18.9-34.4.1-34.23A34.42 34.42 0 0 1 34.35.15c0 19.22-14.8 34-34.15 34.08Z"/></g><g style="animation:ehiFo9yua0D31_to__to 3000ms linear 1 normal forwards" transform="translate(1575.7 16.48)"><path d="M.15-34.3C19.58-34.3 34.06-19.8 34.2-.24c.14 19.64-14.76 34.62-34.32 34.54-18.84-.08-34.32-15.74-34.06-34.49.26-19.17 15.28-34.1 34.33-34.1h.01Z"/></g><g style="animation:ehiFo9yua0D32_to__to 3000ms linear 1 normal forwards" transform="translate(-155.27 .45)"><path d="M.03 34.23C-19.47 34.3-34.2 19.77-34.26.4c-.05-19.1 14.96-34.46 33.88-34.65C18.19-34.43 34.17-18.64 34.26 0c.1 18.96-15.1 34.16-34.23 34.24v-.01Z"/></g><g style="animation:ehiFo9yua0D33_to__to 3000ms linear 1 normal forwards" transform="translate(553.93 163.78)"><path d="M-.05-34.3c19.17 0 34.3 15.04 34.29 34.1 0 18.58-15.95 34.58-34.4 34.5-18.63-.08-34.1-15.8-34.08-34.63C-34.2-19.65-19.47-34.3-.05-34.3Z"/></g><g style="animation:ehiFo9yua0D34_to__to 3000ms linear 1 normal forwards" transform="translate(1239.87 31.08)"><path d="M-.04 32.81c-18.33.07-32.77-14-32.88-32.04C-33.02-18.03-18.31-33 .09-32.8c17.84.2 32.74 15.02 32.83 32.7.11 18.15-14.61 32.86-32.96 32.92Z"/></g><g style="animation:ehiFo9yua0D35_to__to 3000ms linear 1 normal forwards" transform="translate(185.89 44.49)"><path d="M-.5 32.81c-18.31-.1-32.53-14.73-32.34-33.28.17-17.85 14.85-32.29 32.88-32.34 17.87-.06 32.88 15.17 32.8 33.28-.07 18.17-14.8 32.46-33.35 32.34Z"/></g><g style="animation:ehiFo9yua0D36_to__to 3000ms linear 1 normal forwards" transform="translate(1079.33 -4.2)"><path d="M32.7.35C32.62 18.87 18.64 32.73.18 32.57-18.47 32.4-32.72 18.1-32.7-.41c.02-18.05 14.47-32.2 32.86-32.16 18.84.04 32.65 14 32.56 32.9v.02Z"/></g><g style="animation:ehiFo9yua0D37_to__to 3000ms linear 1 normal forwards" transform="translate(617.29 39.35)"><path d="M32.59.47C32.53 18.83 18.6 32.54-.07 32.57c-18.36.02-32.37-13.92-32.52-32.4-.14-18.58 14.07-32.75 32.86-32.74 18.77 0 32.36 13.9 32.3 33.04h.02Z"/></g><g style="animation:ehiFo9yua0D38_to__to 3000ms linear 1 normal forwards" transform="translate(836.4 86.83)"><path d="M.32-32.33c17.79.08 32.23 14.31 32.47 31.96.24 17.94-14.88 32.8-33.26 32.7-17.94-.11-32.52-14.9-32.32-32.82S-18.03-32.42.33-32.33H.32Z"/></g><g style="animation:ehiFo9yua0D39_to__to 3000ms linear 1 normal forwards" transform="translate(361.02 110.67)"><path d="M.31 31.03C-17.3 31.1-31.46 17.45-31.5.37-31.57-16.42-17.03-30.9 0-31.03 17.1-31.18 31.4-17.02 31.5.1c.1 17.5-13.4 30.88-31.21 30.93h.01Z"/></g><g style="animation:ehiFo9yua0D40_to__to 3000ms linear 1 normal forwards" transform="translate(-135.95 425.74)"><path d="M-.08 31.05c-17.77 0-31.07-13.25-31.08-31.01 0-17.5 13.6-31.1 31.12-31.1 17.4 0 31.2 13.78 31.2 31.13 0 17.45-13.64 30.97-31.23 30.97l-.01.01Z"/></g><g style="animation:ehiFo9yua0D41_to__to 3000ms linear 1 normal forwards" transform="translate(1177.92 313.32)"><path d="M-.06 31.03C-18.42 30.9-31.29 17.83-31.1-.53c.17-16.85 14.25-30.61 31.21-30.5A30.9 30.9 0 0 1 31.1.3C31.02 18.25 17.93 31.17-.05 31.03h-.01Z"/></g><g style="animation:ehiFo9yua0D42_to__to 3000ms linear 1 normal forwards" transform="translate(928.9 220.3)"><path d="M-31.03-.28C-31-17.92-17.56-31.07.35-30.98c17.54.07 30.72 13.2 30.69 30.6A31.24 31.24 0 0 1-.08 30.98C-17.55 31-31.07 17.36-31.04-.28h.01Z"/></g><g style="animation:ehiFo9yua0D43_to__to 3000ms linear 1 normal forwards" transform="translate(1672.12 184.48)"><path d="M-.11 31.05C-17.75 31-30.99 17.55-30.92-.24c.05-17.45 13.77-30.9 31.4-30.81 17.34.09 30.57 13.88 30.44 31.72C30.78 17.85 17.24 31.1-.1 31.04l-.01.01Z"/></g><g style="animation:ehiFo9yua0D44_to__to 3000ms linear 1 normal forwards" transform="translate(636.35 482.57)"><path d="M.03 31.01c-17.68.03-30.87-12.93-30.95-30.4C-31-17.24-17.79-30.84-.17-31 17.09-31.2 30.93-17.2 30.92.4 30.91 17.73 17.53 31 .02 31.01Z"/></g><g style="animation:ehiFo9yua0D45_to__to 3000ms linear 1 normal forwards" transform="translate(374.01 181.9)"><path d="M-31-.45C-30.92-18.15-17.48-31.15.6-31 17.8-30.84 31.13-17.16 31 .2A31.17 31.17 0 0 1-.12 30.99C-17.62 30.99-31.06 17.32-31-.45h.02Z"/></g><g style="animation:ehiFo9yua0D46_to__to 3000ms linear 1 normal forwards" transform="translate(857.76 506.36)"><path d="M.35 31.01c-17.9.07-31.44-13.17-31.45-30.8C-31.11-16.95-17.4-30.93-.45-31c17.32-.08 31.56 14 31.55 31.16C31.09 17.45 17.66 30.95.37 31H.35Z"/></g><g style="animation:ehiFo9yua0D47_to__to 3000ms linear 1 normal forwards" transform="translate(1372.99 136.26)"><path d="M.26-30.98c17.5 0 30.72 13.16 30.76 30.64.04 17.44-13.96 31.52-31.14 31.32-16.97-.2-30.86-14.15-30.9-31.04-.04-17.55 13.48-30.9 31.28-30.92Z"/></g><g style="animation:ehiFo9yua0D48_to__to 3000ms linear 1 normal forwards" transform="translate(-10.82 233.44)"><path d="M-.37-30.98C17.27-31 31.03-17.42 30.98-.05c-.05 16.66-14.28 30.9-31 31.03-17.27.15-31-13.76-30.96-31.35.04-17.6 13.04-30.6 30.61-30.61Z"/></g><g style="animation:ehiFo9yua0D49_to__to 3000ms linear 1 normal forwards" transform="translate(191.66 337.06)"><path d="M29.67.22C29.6 16.98 16.99 29.57.26 29.55c-16.56 0-30.2-13.65-29.92-29.94.26-16.03 14-29.28 30.2-29.16 16.52.13 29.2 13.08 29.13 29.76v.01Z"/></g><g style="animation:ehiFo9yua0D50_to__to 3000ms linear 1 normal forwards" transform="translate(1057.84 188.05)"><path d="M-29.61-.23C-29.6-16.75-16.67-29.58-.1-29.57c16.52.02 29.72 13.04 29.72 29.3A29.9 29.9 0 0 1-.44 29.57c-16.37-.12-29.21-13.24-29.19-29.8h.02Z"/></g><g style="animation:ehiFo9yua0D51_to__to 3000ms linear 1 normal forwards" transform="translate(1099.15 404.08)"><path d="M29.63-.14c.05 17.01-12.35 29.65-29.1 29.7-16.33.03-29.88-13.11-30.16-29.27C-29.89-15.5-16-29.43.1-29.55 16.74-29.7 29.58-16.9 29.63-.14Z"/></g><g style="animation:ehiFo9yua0D52_to__to 3000ms linear 1 normal forwards" transform="translate(448.28 472.87)"><path d="M-29.57-.16c0-16.63 12.84-29.4 29.53-29.4A29.43 29.43 0 0 1 29.59-.06C29.53 16.2 16.05 29.6-.16 29.57-16.61 29.52-29.57 16.43-29.6-.16h.02Z"/></g><g style="animation:ehiFo9yua0D53_to__to 3000ms linear 1 normal forwards" transform="translate(382.42 555)"><path d="M-.2 28.01c-15.93-.09-27.94-12.44-27.75-28.54.18-15.6 12.5-27.59 28.2-27.48 15.74.1 27.66 12.14 27.7 27.94C28 16.08 15.95 28.1-.19 28v.01Z"/></g><g style="animation:ehiFo9yua0D54_to__to 3000ms linear 1 normal forwards" transform="translate(1153.77 471.23)"><path d="M.09 28c-16.07.09-28.04-11.97-27.96-28.14.08-15.84 12-27.85 27.65-27.87C15.4-28 27.74-15.9 27.88-.46 28 15.54 15.9 27.93.1 28.01H.1Z"/></g><g style="animation:ehiFo9yua0D55_to__to 3000ms linear 1 normal forwards" transform="translate(96.48 456.8)"><circle r="31"/></g><g style="animation:ehiFo9yua0D56_to__to 3000ms linear 1 normal forwards" transform="translate(284.65 575)"><circle r="30"/></g><g style="animation:ehiFo9yua0D57_to__to 3000ms linear 1 normal forwards" transform="translate(354.47 669.5)"><circle r="28.5"/></g><g style="animation:ehiFo9yua0D58_to__to 3000ms linear 1 normal forwards" transform="translate(412.36 668.07)"><circle r="29"/></g><g style="animation:ehiFo9yua0D59_to__to 3000ms linear 1 normal forwards" transform="translate(469.86 596.5)"><circle r="28.5"/></g><g style="animation:ehiFo9yua0D60_to__to 3000ms linear 1 normal forwards" transform="translate(536.17 529.73)"><circle r="30.5"/></g><g style="animation:ehiFo9yua0D61_to__to 3000ms linear 1 normal forwards" transform="translate(517.29 663)"><circle r="32"/></g><g style="animation:ehiFo9yua0D62_to__to 3000ms linear 1 normal forwards" transform="translate(695.96 580)"><circle r="30.5"/></g><g style="animation:ehiFo9yua0D63_to__to 3000ms linear 1 normal forwards" transform="translate(508.37 412.15)"><circle r="30.5"/></g><g style="animation:ehiFo9yua0D64_to__to 3000ms linear 1 normal forwards" transform="translate(756.96 482.06)"><circle r="30.5"/></g><g style="animation:ehiFo9yua0D65_to__to 3000ms linear 1 normal forwards" transform="translate(857.36 609.5)"><circle r="31.5"/></g><g style="animation:ehiFo9yua0D66_to__to 3000ms linear 1 normal forwards" transform="translate(1372.99 540.5)"><circle r="34.5"/></g><g style="animation:ehiFo9yua0D67_to__to 3000ms linear 1 normal forwards" transform="translate(870.5 701.57)"><circle r="33.5"/></g><g style="animation:ehiFo9yua0D68_to__to 3000ms linear 1 normal forwards" transform="translate(947.99 732)"><circle r="33.5"/></g><g style="animation:ehiFo9yua0D69_to__to 3000ms linear 1 normal forwards" transform="translate(941.02 583)"><circle r="33.5"/></g><g style="animation:ehiFo9yua0D70_to__to 3000ms linear 1 normal forwards" transform="translate(1272.8 425.74)"><circle r="33.5"/></g><g style="animation:ehiFo9yua0D71_to__to 3000ms linear 1 normal forwards" transform="translate(1053.97 714.5)"><circle r="33.5"/></g><g style="animation:ehiFo9yua0D72_to__to 3000ms linear 1 normal forwards" transform="translate(1363.49 741)"><circle r="33.5"/></g><g style="animation:ehiFo9yua0D73_to__to 3000ms linear 1 normal forwards" transform="translate(1187.27 743.5)"><circle r="33.5"/></g><g style="animation:ehiFo9yua0D74_to__to 3000ms linear 1 normal forwards" transform="translate(1274.75 611.5)"><circle r="33.5"/></g><g style="animation:ehiFo9yua0D75_to__to 3000ms linear 1 normal forwards" transform="translate(1001.5 503.37)"><circle r="30.5"/></g><g style="animation:ehiFo9yua0D76_to__to 3000ms linear 1 normal forwards" transform="translate(998.5 358.18)"><circle r="30.5"/></g><g style="animation:ehiFo9yua0D77_to__to 3000ms linear 1 normal forwards" transform="translate(1047.83 594.5)"><circle r="31.5"/></g><g style="animation:ehiFo9yua0D78_to__to 3000ms linear 1 normal forwards" transform="translate(1403.49 625)"><circle r="30.5"/></g><g style="animation:ehiFo9yua0D79_to__to 3000ms linear 1 normal forwards" transform="translate(910.52 344.82)"><circle r="30.5"/></g><g style="animation:ehiFo9yua0D80_to__to 3000ms linear 1 normal forwards" transform="translate(1175.3 571)"><circle r="30.5"/></g><g style="animation:ehiFo9yua0D81_to__to 3000ms linear 1 normal forwards" transform="translate(1403.49 388.68)"><circle r="30.5"/></g><g style="animation:ehiFo9yua0D82_to__to 3000ms linear 1 normal forwards" transform="translate(1543.65 344.32)"><circle r="31"/></g><g style="animation:ehiFo9yua0D83_to__to 3000ms linear 1 normal forwards" transform="translate(390.2 777)"><circle r="28.5"/></g><g style="animation:ehiFo9yua0D84_to__to 3000ms linear 1 normal forwards" transform="translate(615.87 629)"><circle r="34"/></g><g style="animation:ehiFo9yua0D85_to__to 3000ms linear 1 normal forwards" transform="translate(550.7 771.5)"><circle r="34"/></g><g style="animation:ehiFo9yua0D86_to__to 3000ms linear 1 normal forwards" transform="translate(361.7 399.63)"><circle r="34"/></g><g style="animation:ehiFo9yua0D87_to__to 3000ms linear 1 normal forwards" transform="translate(469.86 749)"><circle r="34"/></g><g style="animation:ehiFo9yua0D88_to__to 3000ms linear 1 normal forwards" transform="translate(649.87 732)"><circle r="34"/></g><g style="animation:ehiFo9yua0D89_to__to 3000ms linear 1 normal forwards" transform="translate(710.73 254.3)"><circle r="34"/></g><g style="animation:ehiFo9yua0D90_to__to 3000ms linear 1 normal forwards" transform="translate(583.29 307.51)"><circle r="34"/></g><g style="animation:ehiFo9yua0D91_to__to 3000ms linear 1 normal forwards" transform="translate(726.88 749)"><circle r="34"/></g><g style="animation:ehiFo9yua0D92_to__to 3000ms linear 1 normal forwards" transform="translate(795 354.68)"><circle r="34"/></g><g style="animation:ehiFo9yua0D93_to__to 3000ms linear 1 normal forwards" transform="translate(756.96 655.5)"><circle r="34"/></g><g style="animation:ehiFo9yua0D94_to__to 3000ms linear 1 normal forwards" transform="translate(803 749)"><circle r="34"/></g><g style="animation:ehiFo9yua0D95_to__to 3000ms linear 1 normal forwards" transform="translate(440.38 812)"><circle r="30"/></g></g></g></mask></g></g></svg>